<svg xmlns="http://www.w3.org/2000/svg" xmlns:xlink="http://www.w3.org/1999/xlink" width="500" zoomAndPan="magnify" viewBox="0 0 375 374.999991" height="500" preserveAspectRatio="xMidYMid meet" version="1.0"><defs><g/></defs><rect x="-37.5" width="450" fill="#ffffff" y="-37.499999" height="449.999989" fill-opacity="1"/><rect x="-37.5" width="450" fill="#fff9f9" y="-37.499999" height="449.999989" fill-opacity="1"/><g fill="#000934" fill-opacity="1"><g transform="translate(100.669041, 216.94013)"><g><path d="M 40.09375 -30.921875 C 41.882812 -31.898438 42.941406 -33.265625 43.265625 -35.015625 C 43.597656 -36.765625 43.210938 -38.351562 42.109375 -39.78125 C 41.003906 -41.207031 39.191406 -41.921875 36.671875 -41.921875 C 34.554688 -42.003906 32.945312 -41.414062 31.84375 -40.15625 C 30.738281 -38.894531 30.164062 -37.425781 30.125 -35.75 C 30.082031 -34.082031 30.570312 -32.597656 31.59375 -31.296875 C 32.613281 -29.992188 34.222656 -29.34375 36.421875 -29.34375 L 71.015625 -29.34375 L 71.015625 0 L 36.421875 0 C 31.535156 0 26.972656 -0.914062 22.734375 -2.75 C 18.492188 -4.582031 14.742188 -7.128906 11.484375 -10.390625 C 8.222656 -13.648438 5.675781 -17.394531 3.84375 -21.625 C 2.007812 -25.863281 1.09375 -30.429688 1.09375 -35.328125 C 1.09375 -41.765625 2.539062 -47.628906 5.4375 -52.921875 C 8.332031 -58.222656 12.445312 -62.484375 17.78125 -65.703125 C 23.125 -68.921875 29.460938 -70.570312 36.796875 -70.65625 C 40.617188 -70.65625 44.46875 -70.285156 48.34375 -69.546875 C 52.21875 -68.816406 55.863281 -67.429688 59.28125 -65.390625 C 62.707031 -63.359375 65.5625 -60.34375 67.84375 -56.34375 C 68.820312 -54.632812 69.535156 -52.597656 69.984375 -50.234375 C 70.429688 -47.867188 70.59375 -45.441406 70.46875 -42.953125 C 70.34375 -40.472656 69.832031 -38.15625 68.9375 -36 C 68.039062 -33.84375 66.65625 -32.148438 64.78125 -30.921875 Z M 40.09375 -30.921875 "/></g></g></g><path stroke-linecap="butt" transform="matrix(0.75, 0, 0, 0.75, 154.817661, 101.228593)" fill="none" stroke-linejoin="miter" d="M 55.217081 57.429589 C 61.300415 57.429589 66.967082 58.575422 72.22229 60.877506 C 77.493124 63.174381 81.732708 66.794173 84.941041 71.736881 C 88.144166 76.684798 89.748333 83.106674 89.748333 91.002508 L 89.748333 124.00251 L 60.779581 124.00251 L 60.779581 91.002508 C 60.779581 89.111882 60.248331 87.653549 59.185831 86.627507 C 58.123331 85.606674 56.894164 85.054591 55.503539 84.976466 C 54.112914 84.882716 52.888956 85.335841 51.826456 86.341049 C 50.763956 87.325424 50.232706 88.877507 50.232706 91.002508 L 50.232706 124.00251 L 21.029579 124.00251 L 21.029579 40.825421 L 50.232706 40.825421 L 50.232706 57.773339 C 51.894164 57.544172 53.555623 57.429589 55.217081 57.429589 Z M 55.217081 57.429589 " stroke="#fff9f9" stroke-width="8.900025" stroke-opacity="1" stroke-miterlimit="4"/><g fill="#f2c835" fill-opacity="1"><g transform="translate(169.700472, 194.228586)"><g><path d="M 26.515625 -49.921875 C 31.085938 -49.921875 35.347656 -49.0625 39.296875 -47.34375 C 43.242188 -45.625 46.414062 -42.910156 48.8125 -39.203125 C 51.21875 -35.492188 52.421875 -30.671875 52.421875 -24.734375 L 52.421875 0 L 30.703125 0 L 30.703125 -24.734375 C 30.703125 -26.160156 30.300781 -27.257812 29.5 -28.03125 C 28.695312 -28.800781 27.773438 -29.21875 26.734375 -29.28125 C 25.703125 -29.34375 24.785156 -29 23.984375 -28.25 C 23.179688 -27.507812 22.78125 -26.335938 22.78125 -24.734375 L 22.78125 0 L 0.890625 0 L 0.890625 -62.390625 L 22.78125 -62.390625 L 22.78125 -49.65625 C 24.03125 -49.832031 25.273438 -49.921875 26.515625 -49.921875 Z M 26.515625 -49.921875 "/></g></g></g><path stroke-linecap="butt" transform="matrix(0.75, 0, 0, 0.75, 205.898926, 126.206961)" fill="none" stroke-linejoin="miter" d="M 38.905601 93.989684 C 40.666018 93.041767 41.697268 91.71885 42.00456 90.020934 C 42.31706 88.302183 41.936851 86.755308 40.874351 85.385517 C 39.811851 83.994891 38.056643 83.296975 35.603517 83.296975 C 33.535809 83.21885 31.973309 83.802183 30.910809 85.036558 C 29.848309 86.2501 29.296225 87.671975 29.259767 89.291767 C 29.223309 90.916767 29.692059 92.364684 30.676434 93.640725 C 31.666017 94.895934 33.228517 95.520934 35.374351 95.520934 L 68.94727 95.520934 L 68.94727 124.000102 L 35.374351 124.000102 C 30.619142 124.000102 26.18685 123.109477 22.077475 121.333436 C 17.962891 119.557394 14.322266 117.083435 11.155599 113.916768 C 7.983724 110.750102 5.514974 107.109476 3.738932 102.994893 C 1.957682 98.885517 1.072265 94.453226 1.072265 89.698017 C 1.072265 83.463641 2.473307 77.776141 5.270182 72.635516 C 8.093099 67.479265 12.087891 63.349057 17.264975 60.239682 C 22.442058 57.109473 28.5931 55.505306 35.718101 55.427181 C 39.426434 55.427181 43.166018 55.786556 46.931643 56.500098 C 50.697268 57.198015 54.238935 58.536556 57.561852 60.52614 C 60.884769 62.49489 63.645186 65.421974 65.848311 69.307391 C 66.796228 70.963641 67.47852 72.948016 67.905603 75.244891 C 68.348311 77.520933 68.514978 79.869891 68.395186 82.28135 C 68.280603 84.698017 67.79102 86.958433 66.921228 89.0626 C 66.051436 91.145934 64.707686 92.791767 62.895186 93.989684 Z M 38.905601 93.989684 " stroke="#fff9f9" stroke-width="8.900025" stroke-opacity="1" stroke-miterlimit="4"/><g fill="#000934" fill-opacity="1"><g transform="translate(205.898926, 219.206954)"><g><path d="M 29.1875 -22.515625 C 30.5 -23.222656 31.269531 -24.210938 31.5 -25.484375 C 31.738281 -26.765625 31.457031 -27.925781 30.65625 -28.96875 C 29.851562 -30.007812 28.535156 -30.53125 26.703125 -30.53125 C 25.160156 -30.582031 23.988281 -30.148438 23.1875 -29.234375 C 22.382812 -28.316406 21.96875 -27.25 21.9375 -26.03125 C 21.90625 -24.8125 22.257812 -23.726562 23 -22.78125 C 23.75 -21.832031 24.921875 -21.359375 26.515625 -21.359375 L 51.703125 -21.359375 L 51.703125 0 L 26.515625 0 C 22.960938 0 19.640625 -0.664062 16.546875 -2 C 13.460938 -3.332031 10.734375 -5.1875 8.359375 -7.5625 C 5.992188 -9.9375 4.140625 -12.664062 2.796875 -15.75 C 1.460938 -18.832031 0.796875 -22.15625 0.796875 -25.71875 C 0.796875 -30.40625 1.847656 -34.675781 3.953125 -38.53125 C 6.066406 -42.394531 9.066406 -45.5 12.953125 -47.84375 C 16.835938 -50.1875 21.445312 -51.382812 26.78125 -51.4375 C 29.570312 -51.4375 32.375 -51.171875 35.1875 -50.640625 C 38.007812 -50.109375 40.664062 -49.097656 43.15625 -47.609375 C 45.65625 -46.128906 47.734375 -43.9375 49.390625 -41.03125 C 50.109375 -39.78125 50.628906 -38.296875 50.953125 -36.578125 C 51.273438 -34.859375 51.390625 -33.09375 51.296875 -31.28125 C 51.210938 -29.46875 50.84375 -27.773438 50.1875 -26.203125 C 49.539062 -24.640625 48.535156 -23.410156 47.171875 -22.515625 Z M 29.1875 -22.515625 "/></g></g></g><g fill="#f2c835" fill-opacity="1"><g transform="translate(263.264225, 219.197184)"><g><path d="M 0.890625 -49.921875 L 22.78125 -49.921875 L 22.78125 0 L 0.890625 0 Z M 0.890625 -49.921875 "/></g></g></g><g fill="#000934" fill-opacity="1"><g transform="translate(263.465707, 167.218278)"><g><path d="M 3.265625 -5.59375 C 3.566406 -5.59375 3.847656 -5.582031 4.109375 -5.5625 C 4.367188 -5.539062 4.609375 -5.472656 4.828125 -5.359375 C 5.046875 -5.253906 5.242188 -5.066406 5.421875 -4.796875 C 5.578125 -4.554688 5.671875 -4.28125 5.703125 -3.96875 C 5.742188 -3.65625 5.71875 -3.347656 5.625 -3.046875 C 5.53125 -2.742188 5.363281 -2.488281 5.125 -2.28125 L 3.109375 -2.28125 L 3.109375 -2.296875 C 3.273438 -2.378906 3.382812 -2.484375 3.4375 -2.609375 C 3.488281 -2.742188 3.492188 -2.875 3.453125 -3 C 3.410156 -3.132812 3.335938 -3.25 3.234375 -3.34375 C 3.140625 -3.4375 3.023438 -3.484375 2.890625 -3.484375 L 0.09375 -3.484375 L 0.09375 -5.59375 Z M 2.578125 -3.359375 C 2.410156 -3.285156 2.300781 -3.175781 2.25 -3.03125 C 2.195312 -2.894531 2.179688 -2.765625 2.203125 -2.640625 C 2.222656 -2.515625 2.28125 -2.398438 2.375 -2.296875 C 2.476562 -2.203125 2.648438 -2.15625 2.890625 -2.15625 L 5.6875 -2.15625 L 5.6875 0 L 0.078125 0 L 0.078125 -0.421875 L 1.5 -3.359375 Z M 2.578125 -3.359375 "/></g></g></g><g fill="#000934" fill-opacity="1"><g transform="translate(269.24182, 167.218278)"><g><path d="M 2.265625 -2.78125 C 2.265625 -2.644531 2.289062 -2.519531 2.34375 -2.40625 C 2.40625 -2.289062 2.488281 -2.195312 2.59375 -2.125 L 1.484375 -0.3125 C 1.054688 -0.570312 0.71875 -0.921875 0.46875 -1.359375 C 0.21875 -1.796875 0.09375 -2.269531 0.09375 -2.78125 C 0.09375 -3.1875 0.164062 -3.5625 0.3125 -3.90625 C 0.46875 -4.257812 0.679688 -4.566406 0.953125 -4.828125 C 1.234375 -5.097656 1.550781 -5.3125 1.90625 -5.46875 C 2.257812 -5.625 2.644531 -5.703125 3.0625 -5.703125 C 3.332031 -5.703125 3.59375 -5.664062 3.84375 -5.59375 C 4.09375 -5.519531 4.328125 -5.421875 4.546875 -5.296875 L 3.421875 -3.484375 C 3.304688 -3.546875 3.1875 -3.578125 3.0625 -3.578125 C 2.84375 -3.578125 2.65625 -3.5 2.5 -3.34375 C 2.34375 -3.1875 2.265625 -3 2.265625 -2.78125 Z M 4.625 -5.25 C 5.050781 -4.988281 5.390625 -4.640625 5.640625 -4.203125 C 5.898438 -3.773438 6.03125 -3.300781 6.03125 -2.78125 C 6.03125 -2.382812 5.953125 -2.007812 5.796875 -1.65625 C 5.640625 -1.300781 5.425781 -0.988281 5.15625 -0.71875 C 4.882812 -0.457031 4.566406 -0.25 4.203125 -0.09375 C 3.847656 0.0507812 3.46875 0.125 3.0625 0.125 C 2.519531 0.125 2.023438 0 1.578125 -0.25 L 2.6875 -2.078125 C 2.800781 -2.015625 2.925781 -1.984375 3.0625 -1.984375 C 3.28125 -1.984375 3.46875 -2.0625 3.625 -2.21875 C 3.78125 -2.375 3.859375 -2.5625 3.859375 -2.78125 C 3.859375 -2.90625 3.828125 -3.023438 3.765625 -3.140625 C 3.703125 -3.253906 3.617188 -3.347656 3.515625 -3.421875 Z M 4.625 -5.25 "/></g></g></g><g fill="#000934" fill-opacity="1"><g transform="translate(275.353937, 167.218278)"><g><path d="M 3.265625 -5.59375 C 3.566406 -5.59375 3.847656 -5.582031 4.109375 -5.5625 C 4.367188 -5.539062 4.609375 -5.472656 4.828125 -5.359375 C 5.046875 -5.253906 5.242188 -5.066406 5.421875 -4.796875 C 5.578125 -4.554688 5.671875 -4.28125 5.703125 -3.96875 C 5.742188 -3.65625 5.71875 -3.347656 5.625 -3.046875 C 5.53125 -2.742188 5.363281 -2.488281 5.125 -2.28125 L 3.109375 -2.28125 L 3.109375 -2.296875 C 3.273438 -2.378906 3.382812 -2.484375 3.4375 -2.609375 C 3.488281 -2.742188 3.492188 -2.875 3.453125 -3 C 3.410156 -3.132812 3.335938 -3.25 3.234375 -3.34375 C 3.140625 -3.4375 3.023438 -3.484375 2.890625 -3.484375 L 0.09375 -3.484375 L 0.09375 -5.59375 Z M 2.578125 -3.359375 C 2.410156 -3.285156 2.300781 -3.175781 2.25 -3.03125 C 2.195312 -2.894531 2.179688 -2.765625 2.203125 -2.640625 C 2.222656 -2.515625 2.28125 -2.398438 2.375 -2.296875 C 2.476562 -2.203125 2.648438 -2.15625 2.890625 -2.15625 L 5.6875 -2.15625 L 5.6875 0 L 0.078125 0 L 0.078125 -0.421875 L 1.5 -3.359375 Z M 2.578125 -3.359375 "/></g></g></g><g fill="#000934" fill-opacity="1"><g transform="translate(281.13005, 167.218278)"><g><path d="M 0.09375 -2.21875 L 0.09375 -5.59375 L 5.40625 -5.59375 L 5.40625 -3.53125 L 2.1875 -3.53125 L 2.1875 -2.21875 Z M 2.765625 -3.390625 L 4.8125 -3.390625 C 5.0625 -3.222656 5.242188 -3.019531 5.359375 -2.78125 C 5.472656 -2.539062 5.53125 -2.289062 5.53125 -2.03125 C 5.53125 -1.519531 5.421875 -1.117188 5.203125 -0.828125 C 4.992188 -0.535156 4.691406 -0.320312 4.296875 -0.1875 C 3.910156 -0.0625 3.4375 0 2.875 0 L 0.09375 0 L 0.09375 -2.078125 L 2.84375 -2.078125 C 3 -2.078125 3.125 -2.113281 3.21875 -2.1875 C 3.3125 -2.269531 3.375 -2.375 3.40625 -2.5 C 3.4375 -2.625 3.4375 -2.742188 3.40625 -2.859375 C 3.375 -2.984375 3.304688 -3.085938 3.203125 -3.171875 C 3.097656 -3.253906 2.953125 -3.300781 2.765625 -3.3125 Z M 2.765625 -3.390625 "/></g></g></g><g fill="#000934" fill-opacity="1"><g transform="translate(227.457031, 233.628558)"><g><path d="M 3.328125 -4.21875 C 3.328125 -3.875 3.441406 -3.585938 3.671875 -3.359375 C 3.898438 -3.140625 4.179688 -3.03125 4.515625 -3.03125 C 4.828125 -3.03125 5.09375 -3.128906 5.3125 -3.328125 C 5.539062 -3.535156 5.671875 -3.796875 5.703125 -4.109375 L 8.9375 -4.109375 C 8.925781 -3.503906 8.800781 -2.9375 8.5625 -2.40625 C 8.332031 -1.882812 8.015625 -1.425781 7.609375 -1.03125 C 7.210938 -0.632812 6.75 -0.320312 6.21875 -0.09375 C 5.6875 0.125 5.125 0.234375 4.53125 0.234375 C 3.914062 0.234375 3.335938 0.117188 2.796875 -0.109375 C 2.265625 -0.335938 1.796875 -0.65625 1.390625 -1.0625 C 0.984375 -1.476562 0.664062 -1.953125 0.4375 -2.484375 C 0.207031 -3.015625 0.09375 -3.585938 0.09375 -4.203125 C 0.09375 -4.816406 0.207031 -5.390625 0.4375 -5.921875 C 0.664062 -6.460938 0.984375 -6.929688 1.390625 -7.328125 C 1.796875 -7.734375 2.265625 -8.050781 2.796875 -8.28125 C 3.335938 -8.519531 3.914062 -8.640625 4.53125 -8.640625 C 5.125 -8.640625 5.6875 -8.523438 6.21875 -8.296875 C 6.75 -8.078125 7.210938 -7.769531 7.609375 -7.375 C 8.015625 -6.976562 8.332031 -6.515625 8.5625 -5.984375 C 8.800781 -5.460938 8.925781 -4.90625 8.9375 -4.3125 L 5.71875 -4.3125 C 5.6875 -4.625 5.554688 -4.882812 5.328125 -5.09375 C 5.097656 -5.300781 4.828125 -5.40625 4.515625 -5.40625 C 4.179688 -5.40625 3.898438 -5.289062 3.671875 -5.0625 C 3.441406 -4.832031 3.328125 -4.550781 3.328125 -4.21875 Z M 3.328125 -4.21875 "/></g></g></g><g fill="#000934" fill-opacity="1"><g transform="translate(236.517043, 233.628558)"><g><path d="M 4.71875 0.234375 C 4.082031 0.234375 3.484375 0.117188 2.921875 -0.109375 C 2.367188 -0.335938 1.882812 -0.65625 1.46875 -1.0625 C 1.050781 -1.46875 0.722656 -1.9375 0.484375 -2.46875 C 0.242188 -3.007812 0.125 -3.585938 0.125 -4.203125 C 0.125 -4.816406 0.242188 -5.390625 0.484375 -5.921875 C 0.722656 -6.460938 1.050781 -6.929688 1.46875 -7.328125 C 1.882812 -7.734375 2.367188 -8.050781 2.921875 -8.28125 C 3.484375 -8.519531 4.082031 -8.640625 4.71875 -8.640625 C 5.34375 -8.640625 5.929688 -8.519531 6.484375 -8.28125 C 7.046875 -8.050781 7.535156 -7.734375 7.953125 -7.328125 C 8.378906 -6.929688 8.707031 -6.460938 8.9375 -5.921875 C 9.175781 -5.390625 9.296875 -4.816406 9.296875 -4.203125 C 9.296875 -3.585938 9.175781 -3.007812 8.9375 -2.46875 C 8.707031 -1.9375 8.378906 -1.46875 7.953125 -1.0625 C 7.535156 -0.65625 7.046875 -0.335938 6.484375 -0.109375 C 5.929688 0.117188 5.34375 0.234375 4.71875 0.234375 Z M 3.515625 -4.203125 C 3.515625 -3.867188 3.628906 -3.585938 3.859375 -3.359375 C 4.097656 -3.128906 4.378906 -3.015625 4.703125 -3.015625 C 5.035156 -3.015625 5.316406 -3.128906 5.546875 -3.359375 C 5.785156 -3.585938 5.90625 -3.867188 5.90625 -4.203125 C 5.90625 -4.523438 5.785156 -4.804688 5.546875 -5.046875 C 5.316406 -5.285156 5.035156 -5.40625 4.703125 -5.40625 C 4.378906 -5.40625 4.097656 -5.285156 3.859375 -5.046875 C 3.628906 -4.804688 3.515625 -4.523438 3.515625 -4.203125 Z M 3.515625 -4.203125 "/></g></g></g><g fill="#000934" fill-opacity="1"><g transform="translate(245.949057, 233.628558)"><g><path d="M 5.46875 -4.765625 L 5.65625 -4.765625 L 4.984375 -5.859375 L 4.984375 -8.40625 L 8.09375 -8.40625 L 8.09375 0 L 4.9375 0 L 2.765625 -3.484375 L 2.5625 -3.484375 L 3.25 -2.375 L 3.25 0 L 0.125 0 L 0.125 -8.40625 L 3.125 -8.40625 Z M 5.46875 -4.765625 "/></g></g></g><g fill="#000934" fill-opacity="1"><g transform="translate(254.169073, 233.628558)"><g><path d="M 5.46875 -4.765625 L 5.65625 -4.765625 L 4.984375 -5.859375 L 4.984375 -8.40625 L 8.09375 -8.40625 L 8.09375 0 L 4.9375 0 L 2.765625 -3.484375 L 2.5625 -3.484375 L 3.25 -2.375 L 3.25 0 L 0.125 0 L 0.125 -8.40625 L 3.125 -8.40625 Z M 5.46875 -4.765625 "/></g></g></g><g fill="#000934" fill-opacity="1"><g transform="translate(262.389089, 233.628558)"><g><path d="M 3.234375 -5.609375 L 3.234375 -5.40625 L 7.234375 -5.40625 L 7.234375 -3 L 3.234375 -3 L 3.234375 -2.78125 L 7.234375 -2.78125 L 7.234375 0 L 0.125 0 L 0.125 -8.40625 L 7.234375 -8.40625 L 7.234375 -5.609375 Z M 3.234375 -5.609375 "/></g></g></g><g fill="#000934" fill-opacity="1"><g transform="translate(269.745099, 233.628558)"><g><path d="M 3.328125 -4.21875 C 3.328125 -3.875 3.441406 -3.585938 3.671875 -3.359375 C 3.898438 -3.140625 4.179688 -3.03125 4.515625 -3.03125 C 4.828125 -3.03125 5.09375 -3.128906 5.3125 -3.328125 C 5.539062 -3.535156 5.671875 -3.796875 5.703125 -4.109375 L 8.9375 -4.109375 C 8.925781 -3.503906 8.800781 -2.9375 8.5625 -2.40625 C 8.332031 -1.882812 8.015625 -1.425781 7.609375 -1.03125 C 7.210938 -0.632812 6.75 -0.320312 6.21875 -0.09375 C 5.6875 0.125 5.125 0.234375 4.53125 0.234375 C 3.914062 0.234375 3.335938 0.117188 2.796875 -0.109375 C 2.265625 -0.335938 1.796875 -0.65625 1.390625 -1.0625 C 0.984375 -1.476562 0.664062 -1.953125 0.4375 -2.484375 C 0.207031 -3.015625 0.09375 -3.585938 0.09375 -4.203125 C 0.09375 -4.816406 0.207031 -5.390625 0.4375 -5.921875 C 0.664062 -6.460938 0.984375 -6.929688 1.390625 -7.328125 C 1.796875 -7.734375 2.265625 -8.050781 2.796875 -8.28125 C 3.335938 -8.519531 3.914062 -8.640625 4.53125 -8.640625 C 5.125 -8.640625 5.6875 -8.523438 6.21875 -8.296875 C 6.75 -8.078125 7.210938 -7.769531 7.609375 -7.375 C 8.015625 -6.976562 8.332031 -6.515625 8.5625 -5.984375 C 8.800781 -5.460938 8.925781 -4.90625 8.9375 -4.3125 L 5.71875 -4.3125 C 5.6875 -4.625 5.554688 -4.882812 5.328125 -5.09375 C 5.097656 -5.300781 4.828125 -5.40625 4.515625 -5.40625 C 4.179688 -5.40625 3.898438 -5.289062 3.671875 -5.0625 C 3.441406 -4.832031 3.328125 -4.550781 3.328125 -4.21875 Z M 3.328125 -4.21875 "/></g></g></g><g fill="#000934" fill-opacity="1"><g transform="translate(278.805111, 233.628558)"><g><path d="M 1.984375 -5.40625 L 0.125 -5.40625 L 0.125 -8.40625 L 6.96875 -8.40625 L 6.96875 -5.40625 L 5.09375 -5.40625 L 5.09375 0 L 1.984375 0 Z M 1.984375 -5.40625 "/></g></g></g></svg>