<svg xmlns="http://www.w3.org/2000/svg" xmlns:xlink="http://www.w3.org/1999/xlink" width="389" zoomAndPan="magnify" viewBox="0 0 291.75 137.999998" height="184" preserveAspectRatio="xMidYMid meet" version="1.0"><defs><g/><clipPath id="cb3a376b00"><path d="M 15 32 L 82 32 L 82 104 L 15 104 Z M 15 32 " clip-rule="nonzero"/></clipPath><clipPath id="babc96db00"><path d="M 0 68.320312 L 51.398438 16.921875 L 102.796875 68.320312 L 51.398438 119.71875 Z M 0 68.320312 " clip-rule="nonzero"/></clipPath><clipPath id="b340b1a636"><path d="M 0 68.320312 L 51.398438 16.921875 L 102.796875 68.320312 L 51.398438 119.71875 Z M 0 68.320312 " clip-rule="nonzero"/></clipPath><clipPath id="f52e5e8e5a"><path d="M 15 32 L 83 32 L 83 105 L 15 105 Z M 15 32 " clip-rule="nonzero"/></clipPath><clipPath id="7998418716"><path d="M 0 68.320312 L 51.398438 16.921875 L 102.796875 68.320312 L 51.398438 119.71875 Z M 0 68.320312 " clip-rule="nonzero"/></clipPath><clipPath id="b875d626e5"><path d="M 0 68.320312 L 51.398438 16.921875 L 102.796875 68.320312 L 51.398438 119.71875 Z M 0 68.320312 " clip-rule="nonzero"/></clipPath><clipPath id="0c5130d9af"><path d="M 27 36 L 291.5 36 L 291.5 137.941406 L 27 137.941406 Z M 27 36 " clip-rule="nonzero"/></clipPath></defs><g clip-path="url(#cb3a376b00)"><g clip-path="url(#babc96db00)"><g clip-path="url(#b340b1a636)"><path fill="#000000" d="M 76.328125 93.316406 C 62.546875 107.097656 40.125 107.105469 26.335938 93.339844 C 26.332031 93.335938 26.328125 93.332031 26.324219 93.328125 C 26.320312 93.324219 26.316406 93.320312 26.3125 93.316406 C 12.546875 79.527344 12.554688 57.105469 26.335938 43.324219 C 40.125 29.535156 62.5625 29.535156 76.355469 43.324219 L 81.625 48.59375 L 56.582031 73.582031 L 46.0625 63.039062 L 59.554688 49.574219 C 52.0625 46.304688 42.988281 47.730469 36.867188 53.855469 C 28.886719 61.835938 28.882812 74.816406 36.855469 82.800781 C 44.839844 90.773438 57.820312 90.769531 65.800781 82.789062 L 76.328125 93.316406 " fill-opacity="1" fill-rule="nonzero"/></g></g></g><g clip-path="url(#f52e5e8e5a)"><g clip-path="url(#7998418716)"><g clip-path="url(#b875d626e5)"><path fill="#000000" d="M 26.996094 43.984375 C 13.582031 57.398438 13.570312 79.234375 26.972656 92.660156 C 40.199219 105.863281 61.542969 106.070312 75.007812 93.308594 L 65.785156 84.089844 C 57.40625 91.78125 44.324219 91.574219 36.195312 83.457031 C 27.863281 75.113281 27.867188 61.535156 36.207031 53.195312 C 42.382812 47.023438 51.917969 45.222656 59.929688 48.722656 L 61.179688 49.269531 L 47.382812 63.042969 L 56.582031 72.261719 L 80.308594 48.59375 L 75.695312 43.984375 C 62.265625 30.554688 40.421875 30.554688 26.996094 43.984375 Z M 77.644531 93.316406 L 76.988281 93.976562 C 62.847656 108.117188 39.828125 108.125 25.679688 94 C 11.527344 79.824219 11.539062 56.808594 25.679688 42.667969 C 39.832031 28.515625 62.859375 28.515625 77.011719 42.667969 L 82.941406 48.597656 L 56.582031 74.894531 L 44.75 63.039062 L 57.894531 49.921875 C 50.863281 47.441406 42.832031 49.203125 37.523438 54.511719 C 29.910156 62.128906 29.90625 74.519531 37.515625 82.140625 C 45.136719 89.75 57.527344 89.746094 65.144531 82.128906 L 65.800781 81.472656 L 77.644531 93.316406 " fill-opacity="1" fill-rule="nonzero"/></g></g></g><path stroke-linecap="butt" transform="matrix(0.749358, 0, 0, 0.749358, 68.258457, 30.669931)" fill="none" stroke-linejoin="miter" d="M 14.50114 15.823432 L 14.50114 24.65391 L 28.763351 24.65391 L 28.763351 32.879703 L 14.50114 32.879703 L 14.50114 42.471248 L 30.634745 42.471248 L 30.634745 50.999383 L 3.861822 50.999383 L 3.861822 7.290084 L 30.634745 7.290084 L 30.634745 15.823432 Z M 75.402242 7.290084 L 75.402242 50.999383 L 64.757712 50.999383 L 64.757712 32.999597 L 48.191444 32.999597 L 48.191444 50.999383 L 37.546914 50.999383 L 37.546914 7.290084 L 48.191444 7.290084 L 48.191444 24.408908 L 64.757712 24.408908 L 64.757712 7.290084 Z M 93.704371 15.823432 L 93.704371 24.65391 L 107.966582 24.65391 L 107.966582 32.879703 L 93.704371 32.879703 L 93.704371 42.471248 L 109.832763 42.471248 L 109.832763 50.999383 L 83.065053 50.999383 L 83.065053 7.290084 L 109.832763 7.290084 L 109.832763 15.823432 Z M 127.389462 7.290084 L 127.389462 50.999383 L 116.750144 50.999383 L 116.750144 7.290084 Z M 127.389462 7.290084 " stroke="#ffffff" stroke-width="9.885442" stroke-opacity="1" stroke-miterlimit="4"/><g clip-path="url(#0c5130d9af)"><path stroke-linecap="butt" transform="matrix(0.749358, 0, 0, 0.749358, 68.258457, 30.669931)" fill="none" stroke-linejoin="miter" d="M 1.568192 81.244029 C 1.568192 77.944329 2.282345 75.004312 3.705438 72.423977 C 5.138957 69.833217 7.130246 67.821078 9.679303 66.377133 C 12.238786 64.927976 15.137101 64.203397 18.374248 64.203397 C 22.341186 64.203397 25.734717 65.256382 28.554839 67.357139 C 31.380175 69.44747 33.27242 72.29887 34.226362 75.906125 L 25.27599 75.906125 C 24.608752 74.514309 23.665236 73.450898 22.440229 72.726319 C 21.225648 71.996528 19.839044 71.631632 18.280417 71.631632 C 15.76785 71.631632 13.734859 72.502169 12.181445 74.248456 C 10.628032 75.98953 9.856538 78.31965 9.856538 81.244029 C 9.856538 84.163195 10.628032 86.498528 12.181445 88.250028 C 13.734859 89.991102 15.76785 90.866852 18.280417 90.866852 C 19.839044 90.866852 21.225648 90.501956 22.440229 89.772164 C 23.665236 89.03716 24.608752 87.968537 25.27599 86.57672 L 34.226362 86.57672 C 33.27242 90.194401 31.380175 93.040588 28.554839 95.120494 C 25.734717 97.195187 22.341186 98.232533 18.374248 98.232533 C 15.137101 98.232533 12.238786 97.513167 9.679303 96.069222 C 7.130246 94.630491 5.138957 92.623564 3.705438 90.053655 C 2.282345 87.478534 1.568192 84.543729 1.568192 81.244029 Z M 55.02542 98.336789 C 51.876891 98.336789 48.994215 97.606997 46.377391 96.152627 C 43.760567 94.687831 41.675448 92.644415 40.137673 90.027591 C 38.599898 87.410767 37.833617 84.465537 37.833617 81.197114 C 37.833617 77.92869 38.599898 74.988673 40.137673 72.387488 C 41.675448 69.786302 43.760567 67.753312 46.377391 66.298941 C 48.994215 64.839358 51.876891 64.11478 55.02542 64.11478 C 58.158311 64.11478 61.040988 64.839358 63.657812 66.298941 C 66.274635 67.753312 68.338903 69.786302 69.840188 72.387488 C 71.351899 74.988673 72.107755 77.92869 72.107755 81.197114 C 72.107755 84.465537 71.341474 87.410767 69.814124 90.027591 C 68.2972 92.644415 66.238146 94.687831 63.631748 96.152627 C 61.030562 97.606997 58.158311 98.336789 55.02542 98.336789 Z M 55.02542 90.908554 C 57.689159 90.908554 59.821193 90.022378 61.426735 88.250028 C 63.032276 86.467251 63.829834 84.11628 63.829834 81.197114 C 63.829834 78.246671 63.032276 75.890487 61.426735 74.128562 C 59.821193 72.371849 57.689159 71.490887 55.02542 71.490887 C 52.325192 71.490887 50.17752 72.361424 48.571978 74.107711 C 46.97165 75.848785 46.168879 78.215394 46.168879 81.197114 C 46.168879 84.147557 46.97165 86.508954 48.571978 88.270879 C 50.17752 90.032804 52.325192 90.908554 55.02542 90.908554 Z M 106.517425 97.997957 L 98.380249 97.997957 L 84.759212 77.38656 L 84.759212 97.997957 L 76.627249 97.997957 L 76.627249 64.589144 L 84.759212 64.589144 L 98.380249 85.283946 L 98.380249 64.589144 L 106.517425 64.589144 Z M 142.308486 97.997957 L 134.171311 97.997957 L 120.550273 77.38656 L 120.550273 97.997957 L 112.418311 97.997957 L 112.418311 64.589144 L 120.550273 64.589144 L 134.171311 85.283946 L 134.171311 64.589144 L 142.308486 64.589144 Z M 156.341334 71.110353 L 156.341334 77.860924 L 167.241292 77.860924 L 167.241292 84.147557 L 156.341334 84.147557 L 156.341334 91.481962 L 168.674811 91.481962 L 168.674811 97.997957 L 148.209372 97.997957 L 148.209372 64.589144 L 168.674811 64.589144 L 168.674811 71.110353 Z M 172.573983 81.244029 C 172.573983 77.944329 173.288136 75.004312 174.711229 72.423977 C 176.144749 69.833217 178.136037 67.821078 180.685094 66.377133 C 183.239365 64.927976 186.13768 64.203397 189.380039 64.203397 C 193.341764 64.203397 196.735295 65.256382 199.555418 67.357139 C 202.385966 69.44747 204.278212 72.29887 205.226941 75.906125 L 196.281782 75.906125 C 195.614544 74.514309 194.671027 73.450898 193.44602 72.726319 C 192.226226 71.996528 190.839622 71.631632 189.286209 71.631632 C 186.773641 71.631632 184.74065 72.502169 183.182024 74.248456 C 181.633823 75.98953 180.857117 78.31965 180.857117 81.244029 C 180.857117 84.163195 181.633823 86.498528 183.182024 88.250028 C 184.74065 89.991102 186.773641 90.866852 189.286209 90.866852 C 190.839622 90.866852 192.226226 90.501956 193.44602 89.772164 C 194.671027 89.03716 195.614544 87.968537 196.281782 86.57672 L 205.226941 86.57672 C 204.278212 90.194401 202.385966 93.040588 199.555418 95.120494 C 196.735295 97.195187 193.341764 98.232533 189.380039 98.232533 C 186.13768 98.232533 183.239365 97.513167 180.685094 96.069222 C 178.136037 94.630491 176.144749 92.623564 174.711229 90.053655 C 173.288136 87.478534 172.573983 84.543729 172.573983 81.244029 Z M 234.257005 64.589144 L 234.257005 71.110353 L 225.410889 71.110353 L 225.410889 97.997957 L 217.263288 97.997957 L 217.263288 71.110353 L 208.411959 71.110353 L 208.411959 64.589144 Z M 242.164817 98.383704 C 240.731298 98.383704 239.558419 97.96668 238.651392 97.12742 C 237.754791 96.282947 237.306491 95.240388 237.306491 93.999742 C 237.306491 92.733033 237.754791 91.669622 238.651392 90.819936 C 239.558419 89.959825 240.731298 89.527163 242.164817 89.527163 C 243.556634 89.527163 244.703449 89.959825 245.60005 90.819936 C 246.507076 91.669622 246.96059 92.733033 246.96059 93.999742 C 246.96059 95.240388 246.507076 96.282947 245.60005 97.12742 C 244.703449 97.96668 243.556634 98.383704 242.164817 98.383704 Z M 242.164817 98.383704 " stroke="#ffffff" stroke-width="9.885442" stroke-opacity="1" stroke-miterlimit="4"/></g><g fill="#000000" fill-opacity="1"><g transform="translate(68.258457, 68.887181)"><g><path d="M 10.875 -26.359375 L 10.875 -19.734375 L 21.5625 -19.734375 L 21.5625 -13.578125 L 10.875 -13.578125 L 10.875 -6.390625 L 22.953125 -6.390625 L 22.953125 0 L 2.890625 0 L 2.890625 -32.75 L 22.953125 -32.75 L 22.953125 -26.359375 Z M 10.875 -26.359375 "/></g></g></g><g fill="#000000" fill-opacity="1"><g transform="translate(93.501112, 68.887181)"><g><path d="M 31.265625 -32.75 L 31.265625 0 L 23.28125 0 L 23.28125 -13.484375 L 10.875 -13.484375 L 10.875 0 L 2.890625 0 L 2.890625 -32.75 L 10.875 -32.75 L 10.875 -19.921875 L 23.28125 -19.921875 L 23.28125 -32.75 Z M 31.265625 -32.75 "/></g></g></g><g fill="#000000" fill-opacity="1"><g transform="translate(127.609014, 68.887181)"><g><path d="M 10.875 -26.359375 L 10.875 -19.734375 L 21.5625 -19.734375 L 21.5625 -13.578125 L 10.875 -13.578125 L 10.875 -6.390625 L 22.953125 -6.390625 L 22.953125 0 L 2.890625 0 L 2.890625 -32.75 L 22.953125 -32.75 L 22.953125 -26.359375 Z M 10.875 -26.359375 "/></g></g></g><g fill="#000000" fill-opacity="1"><g transform="translate(152.851669, 68.887181)"><g><path d="M 10.875 -32.75 L 10.875 0 L 2.890625 0 L 2.890625 -32.75 Z M 10.875 -32.75 "/></g></g></g><g fill="#000000" fill-opacity="1"><g transform="translate(68.258457, 104.107)"><g><path d="M 1.171875 -12.5625 C 1.171875 -15.03125 1.707031 -17.234375 2.78125 -19.171875 C 3.851562 -21.109375 5.34375 -22.617188 7.25 -23.703125 C 9.164062 -24.785156 11.335938 -25.328125 13.765625 -25.328125 C 16.742188 -25.328125 19.289062 -24.539062 21.40625 -22.96875 C 23.519531 -21.40625 24.929688 -19.265625 25.640625 -16.546875 L 18.9375 -16.546875 C 18.4375 -17.597656 17.726562 -18.394531 16.8125 -18.9375 C 15.90625 -19.488281 14.867188 -19.765625 13.703125 -19.765625 C 11.816406 -19.765625 10.289062 -19.109375 9.125 -17.796875 C 7.96875 -16.492188 7.390625 -14.75 7.390625 -12.5625 C 7.390625 -10.375 7.96875 -8.625 9.125 -7.3125 C 10.289062 -6 11.816406 -5.34375 13.703125 -5.34375 C 14.867188 -5.34375 15.90625 -5.613281 16.8125 -6.15625 C 17.726562 -6.707031 18.4375 -7.507812 18.9375 -8.5625 L 25.640625 -8.5625 C 24.929688 -5.851562 23.519531 -3.71875 21.40625 -2.15625 C 19.289062 -0.601562 16.742188 0.171875 13.765625 0.171875 C 11.335938 0.171875 9.164062 -0.363281 7.25 -1.4375 C 5.34375 -2.519531 3.851562 -4.023438 2.78125 -5.953125 C 1.707031 -7.878906 1.171875 -10.082031 1.171875 -12.5625 Z M 1.171875 -12.5625 "/></g></g></g><g fill="#000000" fill-opacity="1"><g transform="translate(95.43504, 104.107)"><g><path d="M 14.0625 0.25 C 11.695312 0.25 9.535156 -0.296875 7.578125 -1.390625 C 5.617188 -2.484375 4.0625 -4.007812 2.90625 -5.96875 C 1.75 -7.9375 1.171875 -10.144531 1.171875 -12.59375 C 1.171875 -15.039062 1.75 -17.238281 2.90625 -19.1875 C 4.0625 -21.132812 5.617188 -22.65625 7.578125 -23.75 C 9.535156 -24.84375 11.695312 -25.390625 14.0625 -25.390625 C 16.414062 -25.390625 18.570312 -24.84375 20.53125 -23.75 C 22.488281 -22.65625 24.03125 -21.132812 25.15625 -19.1875 C 26.289062 -17.238281 26.859375 -15.039062 26.859375 -12.59375 C 26.859375 -10.144531 26.285156 -7.9375 25.140625 -5.96875 C 24.003906 -4.007812 22.460938 -2.484375 20.515625 -1.390625 C 18.566406 -0.296875 16.414062 0.25 14.0625 0.25 Z M 14.0625 -5.3125 C 16.050781 -5.3125 17.644531 -5.976562 18.84375 -7.3125 C 20.050781 -8.644531 20.65625 -10.40625 20.65625 -12.59375 C 20.65625 -14.800781 20.050781 -16.566406 18.84375 -17.890625 C 17.644531 -19.210938 16.050781 -19.875 14.0625 -19.875 C 12.03125 -19.875 10.414062 -19.21875 9.21875 -17.90625 C 8.019531 -16.601562 7.421875 -14.832031 7.421875 -12.59375 C 7.421875 -10.382812 8.019531 -8.617188 9.21875 -7.296875 C 10.414062 -5.972656 12.03125 -5.3125 14.0625 -5.3125 Z M 14.0625 -5.3125 "/></g></g></g><g fill="#000000" fill-opacity="1"><g transform="translate(123.467581, 104.107)"><g><path d="M 24.609375 0 L 18.515625 0 L 8.3125 -15.453125 L 8.3125 0 L 2.21875 0 L 2.21875 -25.046875 L 8.3125 -25.046875 L 18.515625 -9.53125 L 18.515625 -25.046875 L 24.609375 -25.046875 Z M 24.609375 0 "/></g></g></g><g fill="#000000" fill-opacity="1"><g transform="translate(150.287517, 104.107)"><g><path d="M 24.609375 0 L 18.515625 0 L 8.3125 -15.453125 L 8.3125 0 L 2.21875 0 L 2.21875 -25.046875 L 8.3125 -25.046875 L 18.515625 -9.53125 L 18.515625 -25.046875 L 24.609375 -25.046875 Z M 24.609375 0 "/></g></g></g><g fill="#000000" fill-opacity="1"><g transform="translate(177.107452, 104.107)"><g><path d="M 8.3125 -20.15625 L 8.3125 -15.09375 L 16.484375 -15.09375 L 16.484375 -10.375 L 8.3125 -10.375 L 8.3125 -4.890625 L 17.546875 -4.890625 L 17.546875 0 L 2.21875 0 L 2.21875 -25.046875 L 17.546875 -25.046875 L 17.546875 -20.15625 Z M 8.3125 -20.15625 "/></g></g></g><g fill="#000000" fill-opacity="1"><g transform="translate(196.402113, 104.107)"><g><path d="M 1.171875 -12.5625 C 1.171875 -15.03125 1.707031 -17.234375 2.78125 -19.171875 C 3.851562 -21.109375 5.34375 -22.617188 7.25 -23.703125 C 9.164062 -24.785156 11.335938 -25.328125 13.765625 -25.328125 C 16.742188 -25.328125 19.289062 -24.539062 21.40625 -22.96875 C 23.519531 -21.40625 24.929688 -19.265625 25.640625 -16.546875 L 18.9375 -16.546875 C 18.4375 -17.597656 17.726562 -18.394531 16.8125 -18.9375 C 15.90625 -19.488281 14.867188 -19.765625 13.703125 -19.765625 C 11.816406 -19.765625 10.289062 -19.109375 9.125 -17.796875 C 7.96875 -16.492188 7.390625 -14.75 7.390625 -12.5625 C 7.390625 -10.375 7.96875 -8.625 9.125 -7.3125 C 10.289062 -6 11.816406 -5.34375 13.703125 -5.34375 C 14.867188 -5.34375 15.90625 -5.613281 16.8125 -6.15625 C 17.726562 -6.707031 18.4375 -7.507812 18.9375 -8.5625 L 25.640625 -8.5625 C 24.929688 -5.851562 23.519531 -3.71875 21.40625 -2.15625 C 19.289062 -0.601562 16.742188 0.171875 13.765625 0.171875 C 11.335938 0.171875 9.164062 -0.363281 7.25 -1.4375 C 5.34375 -2.519531 3.851562 -4.023438 2.78125 -5.953125 C 1.707031 -7.878906 1.171875 -10.082031 1.171875 -12.5625 Z M 1.171875 -12.5625 "/></g></g></g><g fill="#000000" fill-opacity="1"><g transform="translate(223.578695, 104.107)"><g><path d="M 20.21875 -25.046875 L 20.21875 -20.15625 L 13.59375 -20.15625 L 13.59375 0 L 7.484375 0 L 7.484375 -20.15625 L 0.859375 -20.15625 L 0.859375 -25.046875 Z M 20.21875 -25.046875 "/></g></g></g><g fill="#000000" fill-opacity="1"><g transform="translate(244.656603, 104.107)"><g><path d="M 5.0625 0.28125 C 3.988281 0.28125 3.113281 -0.03125 2.4375 -0.65625 C 1.757812 -1.289062 1.421875 -2.070312 1.421875 -3 C 1.421875 -3.945312 1.757812 -4.738281 2.4375 -5.375 C 3.113281 -6.019531 3.988281 -6.34375 5.0625 -6.34375 C 6.113281 -6.34375 6.976562 -6.019531 7.65625 -5.375 C 8.332031 -4.738281 8.671875 -3.945312 8.671875 -3 C 8.671875 -2.070312 8.332031 -1.289062 7.65625 -0.65625 C 6.976562 -0.03125 6.113281 0.28125 5.0625 0.28125 Z M 5.0625 0.28125 "/></g></g></g></svg>