<svg xmlns="http://www.w3.org/2000/svg" xmlns:xlink="http://www.w3.org/1999/xlink" width="412" zoomAndPan="magnify" viewBox="0 0 309 137.999998" height="184" preserveAspectRatio="xMidYMid meet" version="1.0"><defs><g/><clipPath id="580339e64f"><path d="M 16 33 L 82 33 L 82 105 L 16 105 Z M 16 33 " clip-rule="nonzero"/></clipPath><clipPath id="6807f2e250"><path d="M 0 68.945312 L 51.445312 17.503906 L 102.886719 68.945312 L 51.445312 120.390625 Z M 0 68.945312 " clip-rule="nonzero"/></clipPath><clipPath id="6ae98ecb11"><path d="M 0 68.945312 L 51.445312 17.503906 L 102.886719 68.945312 L 51.445312 120.390625 Z M 0 68.945312 " clip-rule="nonzero"/></clipPath><clipPath id="7f55536ccf"><path d="M 15 32 L 84 32 L 84 106 L 15 106 Z M 15 32 " clip-rule="nonzero"/></clipPath><clipPath id="c6b8769948"><path d="M 0 68.945312 L 51.445312 17.503906 L 102.886719 68.945312 L 51.445312 120.390625 Z M 0 68.945312 " clip-rule="nonzero"/></clipPath><clipPath id="d808c75f77"><path d="M 0 68.945312 L 51.445312 17.503906 L 102.886719 68.945312 L 51.445312 120.390625 Z M 0 68.945312 " clip-rule="nonzero"/></clipPath></defs><g clip-path="url(#580339e64f)"><g clip-path="url(#6807f2e250)"><g clip-path="url(#6ae98ecb11)"><path fill="#0433fe" d="M 76.394531 93.964844 C 62.601562 107.757812 40.160156 107.765625 26.359375 93.988281 C 26.355469 93.984375 26.351562 93.980469 26.347656 93.976562 C 26.34375 93.972656 26.339844 93.96875 26.335938 93.964844 C 12.558594 80.164062 12.566406 57.722656 26.359375 43.929688 C 40.160156 30.128906 62.617188 30.125 76.417969 43.929688 L 81.691406 49.203125 L 56.628906 74.210938 L 46.101562 63.660156 L 59.609375 50.183594 C 52.105469 46.910156 43.027344 48.339844 36.898438 54.46875 C 28.910156 62.453125 28.90625 75.445312 36.886719 83.4375 C 44.878906 91.417969 57.871094 91.414062 65.855469 83.425781 L 76.394531 93.964844 " fill-opacity="1" fill-rule="nonzero"/></g></g></g><g clip-path="url(#7f55536ccf)"><g clip-path="url(#c6b8769948)"><g clip-path="url(#d808c75f77)"><path fill="#0433fe" d="M 27.019531 44.585938 C 13.59375 58.011719 13.582031 79.871094 26.996094 93.308594 C 40.234375 106.523438 61.597656 106.726562 75.070312 93.957031 L 65.84375 84.730469 C 57.453125 92.425781 44.359375 92.21875 36.226562 84.097656 C 27.886719 75.746094 27.894531 62.15625 36.238281 53.808594 C 42.417969 47.628906 51.960938 45.828125 59.980469 49.328125 L 61.234375 49.878906 L 47.421875 63.664062 L 56.632812 72.890625 L 80.375 49.203125 L 75.761719 44.585938 C 62.320312 31.148438 40.457031 31.148438 27.019531 44.585938 Z M 77.710938 93.964844 L 77.054688 94.621094 C 62.902344 108.773438 39.863281 108.785156 25.703125 94.648438 C 11.539062 80.460938 11.550781 57.421875 25.703125 43.269531 C 39.867188 29.105469 62.914062 29.105469 77.078125 43.269531 L 83.011719 49.207031 L 56.628906 75.527344 L 44.785156 63.660156 L 57.945312 50.53125 C 50.90625 48.046875 42.871094 49.8125 37.554688 55.125 C 29.933594 62.746094 29.929688 75.148438 37.546875 82.777344 C 45.175781 90.394531 57.578125 90.390625 65.199219 82.769531 L 65.855469 82.109375 L 77.710938 93.964844 " fill-opacity="1" fill-rule="nonzero"/></g></g></g><g fill="#0433fe" fill-opacity="1"><g transform="translate(85.440034, 68.887084)"><g><path d="M 10.875 -26.390625 L 10.875 -19.75 L 21.578125 -19.75 L 21.578125 -13.59375 L 10.875 -13.59375 L 10.875 -6.390625 L 22.984375 -6.390625 L 22.984375 0 L 2.890625 0 L 2.890625 -32.78125 L 22.984375 -32.78125 L 22.984375 -26.390625 Z M 10.875 -26.390625 "/></g></g></g><g fill="#0433fe" fill-opacity="1"><g transform="translate(110.704318, 68.887084)"><g><path d="M 31.296875 -32.78125 L 31.296875 0 L 23.3125 0 L 23.3125 -13.5 L 10.875 -13.5 L 10.875 0 L 2.890625 0 L 2.890625 -32.78125 L 10.875 -32.78125 L 10.875 -19.9375 L 23.3125 -19.9375 L 23.3125 -32.78125 Z M 31.296875 -32.78125 "/></g></g></g><g fill="#0433fe" fill-opacity="1"><g transform="translate(144.841447, 68.887084)"><g><path d="M 10.875 -26.390625 L 10.875 -19.75 L 21.578125 -19.75 L 21.578125 -13.59375 L 10.875 -13.59375 L 10.875 -6.390625 L 22.984375 -6.390625 L 22.984375 0 L 2.890625 0 L 2.890625 -32.78125 L 22.984375 -32.78125 L 22.984375 -26.390625 Z M 10.875 -26.390625 "/></g></g></g><g fill="#0433fe" fill-opacity="1"><g transform="translate(170.105732, 68.887084)"><g><path d="M 10.875 -32.78125 L 10.875 0 L 2.890625 0 L 2.890625 -32.78125 Z M 10.875 -32.78125 "/></g></g></g><g fill="#0433fe" fill-opacity="1"><g transform="translate(85.440034, 104.137082)"><g><path d="M 1.171875 -12.5625 C 1.171875 -15.039062 1.707031 -17.25 2.78125 -19.1875 C 3.851562 -21.125 5.347656 -22.632812 7.265625 -23.71875 C 9.179688 -24.800781 11.351562 -25.34375 13.78125 -25.34375 C 16.757812 -25.34375 19.304688 -24.554688 21.421875 -22.984375 C 23.535156 -21.421875 24.953125 -19.28125 25.671875 -16.5625 L 18.953125 -16.5625 C 18.453125 -17.613281 17.742188 -18.410156 16.828125 -18.953125 C 15.910156 -19.503906 14.867188 -19.78125 13.703125 -19.78125 C 11.828125 -19.78125 10.304688 -19.125 9.140625 -17.8125 C 7.972656 -16.507812 7.390625 -14.757812 7.390625 -12.5625 C 7.390625 -10.375 7.972656 -8.625 9.140625 -7.3125 C 10.304688 -6.007812 11.828125 -5.359375 13.703125 -5.359375 C 14.867188 -5.359375 15.910156 -5.628906 16.828125 -6.171875 C 17.742188 -6.722656 18.453125 -7.519531 18.953125 -8.5625 L 25.671875 -8.5625 C 24.953125 -5.851562 23.535156 -3.71875 21.421875 -2.15625 C 19.304688 -0.601562 16.757812 0.171875 13.78125 0.171875 C 11.351562 0.171875 9.179688 -0.367188 7.265625 -1.453125 C 5.347656 -2.535156 3.851562 -4.039062 2.78125 -5.96875 C 1.707031 -7.894531 1.171875 -10.09375 1.171875 -12.5625 Z M 1.171875 -12.5625 "/></g></g></g><g fill="#0433fe" fill-opacity="1"><g transform="translate(112.639903, 104.137082)"><g><path d="M 14.0625 0.25 C 11.707031 0.25 9.546875 -0.296875 7.578125 -1.390625 C 5.617188 -2.484375 4.0625 -4.007812 2.90625 -5.96875 C 1.75 -7.9375 1.171875 -10.148438 1.171875 -12.609375 C 1.171875 -15.054688 1.75 -17.253906 2.90625 -19.203125 C 4.0625 -21.160156 5.617188 -22.6875 7.578125 -23.78125 C 9.546875 -24.875 11.707031 -25.421875 14.0625 -25.421875 C 16.425781 -25.421875 18.585938 -24.875 20.546875 -23.78125 C 22.515625 -22.6875 24.0625 -21.160156 25.1875 -19.203125 C 26.320312 -17.253906 26.890625 -15.054688 26.890625 -12.609375 C 26.890625 -10.148438 26.316406 -7.9375 25.171875 -5.96875 C 24.023438 -4.007812 22.476562 -2.484375 20.53125 -1.390625 C 18.582031 -0.296875 16.425781 0.25 14.0625 0.25 Z M 14.0625 -5.3125 C 16.0625 -5.3125 17.660156 -5.976562 18.859375 -7.3125 C 20.066406 -8.644531 20.671875 -10.410156 20.671875 -12.609375 C 20.671875 -14.816406 20.066406 -16.582031 18.859375 -17.90625 C 17.660156 -19.226562 16.0625 -19.890625 14.0625 -19.890625 C 12.039062 -19.890625 10.425781 -19.234375 9.21875 -17.921875 C 8.019531 -16.609375 7.421875 -14.835938 7.421875 -12.609375 C 7.421875 -10.390625 8.019531 -8.617188 9.21875 -7.296875 C 10.425781 -5.972656 12.039062 -5.3125 14.0625 -5.3125 Z M 14.0625 -5.3125 "/></g></g></g><g fill="#0433fe" fill-opacity="1"><g transform="translate(140.696466, 104.137082)"><g><path d="M 24.640625 0 L 18.53125 0 L 8.3125 -15.453125 L 8.3125 0 L 2.21875 0 L 2.21875 -25.0625 L 8.3125 -25.0625 L 18.53125 -9.53125 L 18.53125 -25.0625 L 24.640625 -25.0625 Z M 24.640625 0 "/></g></g></g><g fill="#0433fe" fill-opacity="1"><g transform="translate(167.539383, 104.137082)"><g><path d="M 24.640625 0 L 18.53125 0 L 8.3125 -15.453125 L 8.3125 0 L 2.21875 0 L 2.21875 -25.0625 L 8.3125 -25.0625 L 18.53125 -9.53125 L 18.53125 -25.0625 L 24.640625 -25.0625 Z M 24.640625 0 "/></g></g></g><g fill="#0433fe" fill-opacity="1"><g transform="translate(194.382299, 104.137082)"><g><path d="M 8.3125 -20.171875 L 8.3125 -15.109375 L 16.5 -15.109375 L 16.5 -10.390625 L 8.3125 -10.390625 L 8.3125 -4.890625 L 17.5625 -4.890625 L 17.5625 0 L 2.21875 0 L 2.21875 -25.0625 L 17.5625 -25.0625 L 17.5625 -20.171875 Z M 8.3125 -20.171875 "/></g></g></g><g fill="#0433fe" fill-opacity="1"><g transform="translate(213.693493, 104.137082)"><g><path d="M 1.171875 -12.5625 C 1.171875 -15.039062 1.707031 -17.25 2.78125 -19.1875 C 3.851562 -21.125 5.347656 -22.632812 7.265625 -23.71875 C 9.179688 -24.800781 11.351562 -25.34375 13.78125 -25.34375 C 16.757812 -25.34375 19.304688 -24.554688 21.421875 -22.984375 C 23.535156 -21.421875 24.953125 -19.28125 25.671875 -16.5625 L 18.953125 -16.5625 C 18.453125 -17.613281 17.742188 -18.410156 16.828125 -18.953125 C 15.910156 -19.503906 14.867188 -19.78125 13.703125 -19.78125 C 11.828125 -19.78125 10.304688 -19.125 9.140625 -17.8125 C 7.972656 -16.507812 7.390625 -14.757812 7.390625 -12.5625 C 7.390625 -10.375 7.972656 -8.625 9.140625 -7.3125 C 10.304688 -6.007812 11.828125 -5.359375 13.703125 -5.359375 C 14.867188 -5.359375 15.910156 -5.628906 16.828125 -6.171875 C 17.742188 -6.722656 18.453125 -7.519531 18.953125 -8.5625 L 25.671875 -8.5625 C 24.953125 -5.851562 23.535156 -3.71875 21.421875 -2.15625 C 19.304688 -0.601562 16.757812 0.171875 13.78125 0.171875 C 11.351562 0.171875 9.179688 -0.367188 7.265625 -1.453125 C 5.347656 -2.535156 3.851562 -4.039062 2.78125 -5.96875 C 1.707031 -7.894531 1.171875 -10.09375 1.171875 -12.5625 Z M 1.171875 -12.5625 "/></g></g></g><g fill="#0433fe" fill-opacity="1"><g transform="translate(240.893363, 104.137082)"><g><path d="M 20.25 -25.0625 L 20.25 -20.171875 L 13.609375 -20.171875 L 13.609375 0 L 7.5 0 L 7.5 -20.171875 L 0.859375 -20.171875 L 0.859375 -25.0625 Z M 20.25 -25.0625 "/></g></g></g><g fill="#0433fe" fill-opacity="1"><g transform="translate(261.989332, 104.137082)"><g><path d="M 5.0625 0.28125 C 4 0.28125 3.125 -0.03125 2.4375 -0.65625 C 1.757812 -1.289062 1.421875 -2.070312 1.421875 -3 C 1.421875 -3.945312 1.757812 -4.742188 2.4375 -5.390625 C 3.125 -6.035156 4 -6.359375 5.0625 -6.359375 C 6.113281 -6.359375 6.976562 -6.035156 7.65625 -5.390625 C 8.332031 -4.742188 8.671875 -3.945312 8.671875 -3 C 8.671875 -2.070312 8.332031 -1.289062 7.65625 -0.65625 C 6.976562 -0.03125 6.113281 0.28125 5.0625 0.28125 Z M 5.0625 0.28125 "/></g></g></g></svg>