<svg xmlns="http://www.w3.org/2000/svg" xmlns:xlink="http://www.w3.org/1999/xlink" width="402" zoomAndPan="magnify" viewBox="0 0 301.5 137.999998" height="184" preserveAspectRatio="xMidYMid meet" version="1.0"><defs><g/><clipPath id="307985a253"><path d="M 15 32 L 82 32 L 82 104 L 15 104 Z M 15 32 " clip-rule="nonzero"/></clipPath><clipPath id="8c58aa8264"><path d="M 0 68.195312 L 51.359375 16.839844 L 102.714844 68.195312 L 51.359375 119.554688 Z M 0 68.195312 " clip-rule="nonzero"/></clipPath><clipPath id="977ca5c06e"><path d="M 0 68.195312 L 51.359375 16.839844 L 102.714844 68.195312 L 51.359375 119.554688 Z M 0 68.195312 " clip-rule="nonzero"/></clipPath><clipPath id="f2557a72d8"><path d="M 15 31 L 83 31 L 83 105 L 15 105 Z M 15 31 " clip-rule="nonzero"/></clipPath><clipPath id="d60a460f76"><path d="M 0 68.195312 L 51.359375 16.839844 L 102.714844 68.195312 L 51.359375 119.554688 Z M 0 68.195312 " clip-rule="nonzero"/></clipPath><clipPath id="9fc2417aed"><path d="M 0 68.195312 L 51.359375 16.839844 L 102.714844 68.195312 L 51.359375 119.554688 Z M 0 68.195312 " clip-rule="nonzero"/></clipPath></defs><g clip-path="url(#307985a253)"><g clip-path="url(#8c58aa8264)"><g clip-path="url(#977ca5c06e)"><path fill="#ffffff" d="M 76.269531 93.171875 C 62.5 106.945312 40.09375 106.953125 26.316406 93.199219 C 26.3125 93.191406 26.308594 93.1875 26.304688 93.183594 C 26.300781 93.179688 26.296875 93.175781 26.292969 93.171875 C 12.539062 79.394531 12.546875 56.992188 26.316406 43.222656 C 40.09375 29.441406 62.511719 29.441406 76.292969 43.222656 L 81.558594 48.484375 L 56.535156 73.453125 L 46.027344 62.917969 L 59.507812 49.464844 C 52.019531 46.195312 42.957031 47.621094 36.835938 53.742188 C 28.863281 61.714844 28.859375 74.6875 36.824219 82.664062 C 44.804688 90.628906 57.773438 90.625 65.746094 82.652344 L 76.269531 93.171875 " fill-opacity="1" fill-rule="nonzero"/></g></g></g><g clip-path="url(#f2557a72d8)"><g clip-path="url(#d60a460f76)"><g clip-path="url(#9fc2417aed)"><path fill="#ffffff" d="M 26.972656 43.878906 C 13.570312 57.28125 13.558594 79.101562 26.953125 92.519531 C 40.167969 105.710938 61.496094 105.914062 74.945312 93.164062 L 65.734375 83.953125 C 57.359375 91.636719 44.289062 91.429688 36.167969 83.320312 C 27.839844 74.984375 27.847656 61.417969 36.179688 53.085938 C 42.347656 46.914062 51.875 45.117188 59.882812 48.613281 L 61.132812 49.160156 L 47.34375 62.921875 L 56.539062 72.136719 L 80.242188 48.484375 L 75.636719 43.878906 C 62.21875 30.460938 40.390625 30.460938 26.972656 43.878906 Z M 77.582031 93.171875 L 76.925781 93.832031 C 62.796875 107.960938 39.796875 107.96875 25.660156 93.855469 C 11.519531 79.691406 11.53125 56.691406 25.660156 42.5625 C 39.800781 28.421875 62.808594 28.421875 76.949219 42.5625 L 82.875 48.488281 L 56.535156 74.765625 L 44.710938 62.917969 L 57.851562 49.8125 C 50.824219 47.332031 42.800781 49.09375 37.492188 54.398438 C 29.882812 62.007812 29.878906 74.390625 37.484375 82.003906 C 45.097656 89.609375 57.480469 89.605469 65.089844 81.996094 L 65.746094 81.339844 L 77.582031 93.171875 " fill-opacity="1" fill-rule="nonzero"/></g></g></g><path stroke-linecap="butt" transform="matrix(0.748758, 0, 0, 0.748758, 77.499807, 30.7006)" fill="none" stroke-linejoin="miter" d="M 14.503437 15.821227 L 14.503437 24.653559 L 28.761419 24.653559 L 28.761419 32.880722 L 14.503437 32.880722 L 14.503437 42.469515 L 30.634311 42.469515 L 30.634311 50.999262 L 3.860817 50.999262 L 3.860817 7.29148 L 30.634311 7.29148 L 30.634311 15.821227 Z M 75.401139 7.29148 L 75.401139 50.999262 L 64.758518 50.999262 L 64.758518 33.000713 L 48.189419 33.000713 L 48.189419 50.999262 L 37.546798 50.999262 L 37.546798 7.29148 L 48.189419 7.29148 L 48.189419 24.408362 L 64.758518 24.408362 L 64.758518 7.29148 Z M 93.70749 15.821227 L 93.70749 24.653559 L 107.965471 24.653559 L 107.965471 32.880722 L 93.70749 32.880722 L 93.70749 42.469515 L 109.833147 42.469515 L 109.833147 50.999262 L 83.064869 50.999262 L 83.064869 7.29148 L 109.833147 7.29148 L 109.833147 15.821227 Z M 127.393471 7.29148 L 127.393471 50.999262 L 116.75085 50.999262 L 116.75085 7.29148 Z M 127.393471 7.29148 " stroke="#000000" stroke-width="0.856219" stroke-opacity="1" stroke-miterlimit="4"/><path stroke-linecap="butt" transform="matrix(0.748758, 0, 0, 0.748758, 77.499807, 30.7006)" fill="none" stroke-linejoin="miter" d="M 1.570566 81.242043 C 1.570566 77.9397 2.280075 75.002546 3.709525 72.420145 C 5.138975 69.832527 7.131857 67.818777 9.682956 66.378893 C 12.239272 64.928575 15.134691 64.203416 18.37443 64.203416 C 22.339328 64.203416 25.735576 65.257244 28.55274 67.354466 C 31.380338 69.446472 33.268882 72.300155 34.223587 75.910298 L 25.276482 75.910298 C 24.60871 74.51215 23.664438 73.453105 22.43845 72.722729 C 21.222896 71.99757 19.835182 71.632382 18.280524 71.632382 C 15.771161 71.632382 13.736543 72.503616 12.176668 74.246085 C 10.627228 75.988553 9.855116 78.320539 9.855116 81.242043 C 9.855116 84.163546 10.627228 86.500749 12.176668 88.248435 C 13.736543 89.990903 15.771161 90.862137 18.280524 90.862137 C 19.835182 90.862137 21.222896 90.502166 22.43845 89.77179 C 23.664438 89.036197 24.60871 87.971935 25.276482 86.579004 L 34.223587 86.579004 C 33.268882 90.194365 31.380338 93.042831 28.55274 95.119185 C 25.735576 97.19554 22.339328 98.233717 18.37443 98.233717 C 15.134691 98.233717 12.239272 97.513775 9.682956 96.068674 C 7.131857 94.62879 5.138975 92.625473 3.709525 90.053507 C 2.280075 87.48154 1.570566 84.544385 1.570566 81.242043 Z M 55.023651 98.338056 C 51.877817 98.338056 48.998049 97.607681 46.37913 96.152146 C 43.76021 94.686177 41.678639 92.646341 40.134416 90.027422 C 38.600626 87.408502 37.833731 84.466131 37.833731 81.19509 C 37.833731 77.924049 38.600626 74.992112 40.134416 72.388843 C 41.678639 69.785575 43.76021 67.756173 46.37913 66.295421 C 48.998049 64.839886 51.877817 64.114727 55.023651 64.114727 C 58.15905 64.114727 61.038818 64.839886 63.657737 66.295421 C 66.276657 67.756173 68.33736 69.785575 69.839848 72.388843 C 71.35277 74.992112 72.104013 77.924049 72.104013 81.19509 C 72.104013 84.466131 71.342336 87.408502 69.81898 90.027422 C 68.295625 92.646341 66.234921 94.686177 63.631653 96.152146 C 61.033601 97.607681 58.15905 98.338056 55.023651 98.338056 Z M 55.023651 90.90909 C 57.689523 90.90909 59.823264 90.022205 61.424874 88.248435 C 63.031701 86.469448 63.829897 84.116594 63.829897 81.19509 C 63.829897 78.242285 63.031701 75.889431 61.424874 74.131311 C 59.823264 72.373192 57.689523 71.491524 55.023651 71.491524 C 52.326477 71.491524 50.177085 72.362758 48.575474 74.105227 C 46.968647 75.847695 46.165234 78.210983 46.165234 81.19509 C 46.165234 84.147896 46.968647 86.505966 48.575474 88.27452 C 50.177085 90.032639 52.326477 90.90909 55.023651 90.90909 Z M 106.515154 97.998953 L 98.381896 97.998953 L 84.760385 77.386701 L 84.760385 97.998953 L 76.627127 97.998953 L 76.627127 64.589472 L 84.760385 64.589472 L 98.381896 85.285195 L 98.381896 64.589472 L 106.515154 64.589472 Z M 142.308791 97.998953 L 134.170316 97.998953 L 120.554022 77.386701 L 120.554022 97.998953 L 112.415548 97.998953 L 112.415548 64.589472 L 120.554022 64.589472 L 134.170316 85.285195 L 134.170316 64.589472 L 142.308791 64.589472 Z M 156.342443 71.110685 L 156.342443 77.861446 L 167.245912 77.861446 L 167.245912 84.147896 L 156.342443 84.147896 L 156.342443 91.482957 L 168.675362 91.482957 L 168.675362 97.998953 L 148.209185 97.998953 L 148.209185 64.589472 L 168.675362 64.589472 L 168.675362 71.110685 Z M 172.572439 81.242043 C 172.572439 77.9397 173.287164 75.002546 174.711397 72.420145 C 176.146064 69.832527 178.13373 67.818777 180.684829 66.378893 C 183.241145 64.928575 186.136564 64.203416 189.376303 64.203416 C 193.346417 64.203416 196.737449 65.257244 199.55983 67.354466 C 202.387428 69.446472 204.275972 72.300155 205.230677 75.910298 L 196.278355 75.910298 C 195.6158 74.51215 194.671528 73.453105 193.44554 72.722729 C 192.229986 71.99757 190.842271 71.632382 189.282397 71.632382 C 186.773034 71.632382 184.738415 72.503616 183.183758 74.246085 C 181.634318 75.988553 180.856989 78.320539 180.856989 81.242043 C 180.856989 84.163546 181.634318 86.500749 183.183758 88.248435 C 184.738415 89.990903 186.773034 90.862137 189.282397 90.862137 C 190.842271 90.862137 192.229986 90.502166 193.44554 89.77179 C 194.671528 89.036197 195.6158 87.971935 196.278355 86.579004 L 205.230677 86.579004 C 204.275972 90.194365 202.387428 93.042831 199.55983 95.119185 C 196.737449 97.19554 193.346417 98.233717 189.376303 98.233717 C 186.136564 98.233717 183.241145 97.513775 180.684829 96.068674 C 178.13373 94.62879 176.146064 92.625473 174.711397 90.053507 C 173.287164 87.48154 172.572439 84.544385 172.572439 81.242043 Z M 234.252686 64.589472 L 234.252686 71.110685 L 225.409921 71.110685 L 225.409921 97.998953 L 217.266229 97.998953 L 217.266229 71.110685 L 208.407813 71.110685 L 208.407813 64.589472 Z M 242.161614 98.385009 C 240.726947 98.385009 239.558346 97.967652 238.650593 97.127719 C 237.753274 96.28257 237.304614 95.244393 237.304614 94.002754 C 237.304614 92.729813 237.753274 91.670768 238.650593 90.820401 C 239.558346 89.959601 240.726947 89.526593 242.161614 89.526593 C 243.554546 89.526593 244.702279 89.959601 245.604815 90.820401 C 246.507351 91.670768 246.961228 92.729813 246.961228 94.002754 C 246.961228 95.244393 246.507351 96.28257 245.604815 97.127719 C 244.702279 97.967652 243.554546 98.385009 242.161614 98.385009 Z M 242.161614 98.385009 " stroke="#000000" stroke-width="0.856219" stroke-opacity="1" stroke-miterlimit="4"/><g fill="#ffffff" fill-opacity="1"><g transform="translate(77.499807, 68.887271)"><g><path d="M 10.859375 -26.34375 L 10.859375 -19.71875 L 21.546875 -19.71875 L 21.546875 -13.5625 L 10.859375 -13.5625 L 10.859375 -6.390625 L 22.9375 -6.390625 L 22.9375 0 L 2.890625 0 L 2.890625 -32.734375 L 22.9375 -32.734375 L 22.9375 -26.34375 Z M 10.859375 -26.34375 "/></g></g></g><g fill="#ffffff" fill-opacity="1"><g transform="translate(102.722264, 68.887271)"><g><path d="M 31.234375 -32.734375 L 31.234375 0 L 23.265625 0 L 23.265625 -13.46875 L 10.859375 -13.46875 L 10.859375 0 L 2.890625 0 L 2.890625 -32.734375 L 10.859375 -32.734375 L 10.859375 -19.90625 L 23.265625 -19.90625 L 23.265625 -32.734375 Z M 31.234375 -32.734375 "/></g></g></g><g fill="#ffffff" fill-opacity="1"><g transform="translate(136.802874, 68.887271)"><g><path d="M 10.859375 -26.34375 L 10.859375 -19.71875 L 21.546875 -19.71875 L 21.546875 -13.5625 L 10.859375 -13.5625 L 10.859375 -6.390625 L 22.9375 -6.390625 L 22.9375 0 L 2.890625 0 L 2.890625 -32.734375 L 22.9375 -32.734375 L 22.9375 -26.34375 Z M 10.859375 -26.34375 "/></g></g></g><g fill="#ffffff" fill-opacity="1"><g transform="translate(162.025331, 68.887271)"><g><path d="M 10.859375 -32.734375 L 10.859375 0 L 2.890625 0 L 2.890625 -32.734375 Z M 10.859375 -32.734375 "/></g></g></g><g fill="#ffffff" fill-opacity="1"><g transform="translate(77.499807, 104.078909)"><g><path d="M 1.171875 -12.546875 C 1.171875 -15.015625 1.707031 -17.21875 2.78125 -19.15625 C 3.851562 -21.09375 5.34375 -22.601562 7.25 -23.6875 C 9.164062 -24.769531 11.332031 -25.3125 13.75 -25.3125 C 16.726562 -25.3125 19.273438 -24.523438 21.390625 -22.953125 C 23.503906 -21.378906 24.914062 -19.238281 25.625 -16.53125 L 18.921875 -16.53125 C 18.421875 -17.582031 17.710938 -18.378906 16.796875 -18.921875 C 15.890625 -19.472656 14.851562 -19.75 13.6875 -19.75 C 11.8125 -19.75 10.289062 -19.09375 9.125 -17.78125 C 7.957031 -16.476562 7.375 -14.734375 7.375 -12.546875 C 7.375 -10.359375 7.957031 -8.609375 9.125 -7.296875 C 10.289062 -5.992188 11.8125 -5.34375 13.6875 -5.34375 C 14.851562 -5.34375 15.890625 -5.613281 16.796875 -6.15625 C 17.710938 -6.707031 18.421875 -7.503906 18.921875 -8.546875 L 25.625 -8.546875 C 24.914062 -5.835938 23.503906 -3.707031 21.390625 -2.15625 C 19.273438 -0.601562 16.726562 0.171875 13.75 0.171875 C 11.332031 0.171875 9.164062 -0.363281 7.25 -1.4375 C 5.34375 -2.519531 3.851562 -4.023438 2.78125 -5.953125 C 1.707031 -7.878906 1.171875 -10.078125 1.171875 -12.546875 Z M 1.171875 -12.546875 "/></g></g></g><g fill="#ffffff" fill-opacity="1"><g transform="translate(104.654644, 104.078909)"><g><path d="M 14.046875 0.25 C 11.691406 0.25 9.535156 -0.296875 7.578125 -1.390625 C 5.617188 -2.484375 4.0625 -4.007812 2.90625 -5.96875 C 1.75 -7.925781 1.171875 -10.128906 1.171875 -12.578125 C 1.171875 -15.023438 1.75 -17.222656 2.90625 -19.171875 C 4.0625 -21.117188 5.617188 -22.640625 7.578125 -23.734375 C 9.535156 -24.828125 11.691406 -25.375 14.046875 -25.375 C 16.398438 -25.375 18.554688 -24.828125 20.515625 -23.734375 C 22.472656 -22.640625 24.015625 -21.117188 25.140625 -19.171875 C 26.273438 -17.222656 26.84375 -15.023438 26.84375 -12.578125 C 26.84375 -10.128906 26.269531 -7.925781 25.125 -5.96875 C 23.988281 -4.007812 22.445312 -2.484375 20.5 -1.390625 C 18.550781 -0.296875 16.398438 0.25 14.046875 0.25 Z M 14.046875 -5.3125 C 16.035156 -5.3125 17.628906 -5.972656 18.828125 -7.296875 C 20.035156 -8.628906 20.640625 -10.390625 20.640625 -12.578125 C 20.640625 -14.785156 20.035156 -16.550781 18.828125 -17.875 C 17.628906 -19.195312 16.035156 -19.859375 14.046875 -19.859375 C 12.023438 -19.859375 10.410156 -19.203125 9.203125 -17.890625 C 8.003906 -16.585938 7.40625 -14.816406 7.40625 -12.578125 C 7.40625 -10.367188 8.003906 -8.601562 9.203125 -7.28125 C 10.410156 -5.96875 12.023438 -5.3125 14.046875 -5.3125 Z M 14.046875 -5.3125 "/></g></g></g><g fill="#ffffff" fill-opacity="1"><g transform="translate(132.664755, 104.078909)"><g><path d="M 24.59375 0 L 18.5 0 L 8.296875 -15.4375 L 8.296875 0 L 2.203125 0 L 2.203125 -25.015625 L 8.296875 -25.015625 L 18.5 -9.515625 L 18.5 -25.015625 L 24.59375 -25.015625 Z M 24.59375 0 "/></g></g></g><g fill="#ffffff" fill-opacity="1"><g transform="translate(159.463231, 104.078909)"><g><path d="M 24.59375 0 L 18.5 0 L 8.296875 -15.4375 L 8.296875 0 L 2.203125 0 L 2.203125 -25.015625 L 8.296875 -25.015625 L 18.5 -9.515625 L 18.5 -25.015625 L 24.59375 -25.015625 Z M 24.59375 0 "/></g></g></g><g fill="#ffffff" fill-opacity="1"><g transform="translate(186.261706, 104.078909)"><g><path d="M 8.296875 -20.140625 L 8.296875 -15.078125 L 16.46875 -15.078125 L 16.46875 -10.375 L 8.296875 -10.375 L 8.296875 -4.875 L 17.53125 -4.875 L 17.53125 0 L 2.203125 0 L 2.203125 -25.015625 L 17.53125 -25.015625 L 17.53125 -20.140625 Z M 8.296875 -20.140625 "/></g></g></g><g fill="#ffffff" fill-opacity="1"><g transform="translate(205.540928, 104.078909)"><g><path d="M 1.171875 -12.546875 C 1.171875 -15.015625 1.707031 -17.21875 2.78125 -19.15625 C 3.851562 -21.09375 5.34375 -22.601562 7.25 -23.6875 C 9.164062 -24.769531 11.332031 -25.3125 13.75 -25.3125 C 16.726562 -25.3125 19.273438 -24.523438 21.390625 -22.953125 C 23.503906 -21.378906 24.914062 -19.238281 25.625 -16.53125 L 18.921875 -16.53125 C 18.421875 -17.582031 17.710938 -18.378906 16.796875 -18.921875 C 15.890625 -19.472656 14.851562 -19.75 13.6875 -19.75 C 11.8125 -19.75 10.289062 -19.09375 9.125 -17.78125 C 7.957031 -16.476562 7.375 -14.734375 7.375 -12.546875 C 7.375 -10.359375 7.957031 -8.609375 9.125 -7.296875 C 10.289062 -5.992188 11.8125 -5.34375 13.6875 -5.34375 C 14.851562 -5.34375 15.890625 -5.613281 16.796875 -6.15625 C 17.710938 -6.707031 18.421875 -7.503906 18.921875 -8.546875 L 25.625 -8.546875 C 24.914062 -5.835938 23.503906 -3.707031 21.390625 -2.15625 C 19.273438 -0.601562 16.726562 0.171875 13.75 0.171875 C 11.332031 0.171875 9.164062 -0.363281 7.25 -1.4375 C 5.34375 -2.519531 3.851562 -4.023438 2.78125 -5.953125 C 1.707031 -7.878906 1.171875 -10.078125 1.171875 -12.546875 Z M 1.171875 -12.546875 "/></g></g></g><g fill="#ffffff" fill-opacity="1"><g transform="translate(232.695766, 104.078909)"><g><path d="M 20.203125 -25.015625 L 20.203125 -20.140625 L 13.578125 -20.140625 L 13.578125 0 L 7.484375 0 L 7.484375 -20.140625 L 0.859375 -20.140625 L 0.859375 -25.015625 Z M 20.203125 -25.015625 "/></g></g></g><g fill="#ffffff" fill-opacity="1"><g transform="translate(253.756808, 104.078909)"><g><path d="M 5.0625 0.28125 C 3.988281 0.28125 3.113281 -0.03125 2.4375 -0.65625 C 1.757812 -1.289062 1.421875 -2.070312 1.421875 -3 C 1.421875 -3.945312 1.757812 -4.738281 2.4375 -5.375 C 3.113281 -6.019531 3.988281 -6.34375 5.0625 -6.34375 C 6.101562 -6.34375 6.960938 -6.019531 7.640625 -5.375 C 8.316406 -4.738281 8.65625 -3.945312 8.65625 -3 C 8.65625 -2.070312 8.316406 -1.289062 7.640625 -0.65625 C 6.960938 -0.03125 6.101562 0.28125 5.0625 0.28125 Z M 5.0625 0.28125 "/></g></g></g></svg>