<svg xmlns="http://www.w3.org/2000/svg" xmlns:xlink="http://www.w3.org/1999/xlink" width="408" zoomAndPan="magnify" viewBox="0 0 306 141.000003" height="188" preserveAspectRatio="xMidYMid meet" version="1.0"><defs><g/><clipPath id="85f90c8276"><path d="M 19 29 L 94 29 L 94 110 L 19 110 Z M 19 29 " clip-rule="nonzero"/></clipPath><clipPath id="5fce54edbe"><path d="M 1.078125 69.109375 L 59.003906 11.183594 L 116.929688 69.109375 L 59.003906 127.035156 Z M 1.078125 69.109375 " clip-rule="nonzero"/></clipPath><clipPath id="bab761a203"><path d="M 1.078125 69.109375 L 59.003906 11.183594 L 116.929688 69.109375 L 59.003906 127.035156 Z M 1.078125 69.109375 " clip-rule="nonzero"/></clipPath><clipPath id="4c684542b4"><path d="M 18 28 L 95 28 L 95 111 L 18 111 Z M 18 28 " clip-rule="nonzero"/></clipPath><clipPath id="f74b0878f0"><path d="M 1.078125 69.109375 L 59.003906 11.183594 L 116.929688 69.109375 L 59.003906 127.035156 Z M 1.078125 69.109375 " clip-rule="nonzero"/></clipPath><clipPath id="62a66c1dd5"><path d="M 1.078125 69.109375 L 59.003906 11.183594 L 116.929688 69.109375 L 59.003906 127.035156 Z M 1.078125 69.109375 " clip-rule="nonzero"/></clipPath><clipPath id="017c8707d4"><path d="M 35 30 L 304.921875 30 L 304.921875 140.007812 L 35 140.007812 Z M 35 30 " clip-rule="nonzero"/></clipPath></defs><g clip-path="url(#85f90c8276)"><g clip-path="url(#5fce54edbe)"><g clip-path="url(#bab761a203)"><path fill="#ffffff" d="M 87.382812 97.371094 C 71.800781 112.957031 46.449219 112.964844 30.855469 97.398438 C 30.851562 97.394531 30.847656 97.390625 30.84375 97.386719 C 30.839844 97.382812 30.835938 97.378906 30.832031 97.371094 C 15.265625 81.78125 15.273438 56.429688 30.855469 40.847656 C 46.449219 25.253906 71.816406 25.253906 87.410156 40.847656 L 93.367188 46.804688 L 65.054688 75.058594 L 53.164062 63.136719 L 68.417969 47.914062 C 59.945312 44.214844 49.6875 45.828125 42.761719 52.75 C 33.738281 61.777344 33.734375 76.453125 42.75 85.480469 C 51.777344 94.496094 66.453125 94.492188 75.476562 85.46875 L 87.382812 97.371094 " fill-opacity="1" fill-rule="nonzero"/></g></g></g><g clip-path="url(#4c684542b4)"><g clip-path="url(#f74b0878f0)"><g clip-path="url(#62a66c1dd5)"><path fill="#ffffff" d="M 31.601562 41.589844 C 16.433594 56.757812 16.421875 81.449219 31.574219 96.632812 C 46.53125 111.558594 70.664062 111.792969 85.886719 97.363281 L 75.460938 86.9375 C 65.984375 95.636719 51.195312 95.402344 42.003906 86.226562 C 32.582031 76.789062 32.589844 61.4375 42.019531 52.007812 C 49 45.027344 59.78125 42.992188 68.839844 46.949219 L 70.253906 47.570312 L 54.652344 63.140625 L 65.054688 73.566406 L 91.882812 46.804688 L 86.667969 41.589844 C 71.484375 26.40625 46.78125 26.410156 31.601562 41.589844 Z M 88.871094 97.371094 L 88.128906 98.117188 C 72.140625 114.105469 46.113281 114.117188 30.113281 98.144531 C 14.113281 82.117188 14.125 56.089844 30.113281 40.101562 C 46.117188 24.101562 72.152344 24.101562 88.15625 40.101562 L 94.859375 46.808594 L 65.054688 76.542969 L 51.675781 63.136719 L 66.542969 48.304688 C 58.589844 45.5 49.507812 47.492188 43.507812 53.496094 C 34.894531 62.105469 34.890625 76.117188 43.496094 84.734375 C 52.113281 93.339844 66.125 93.335938 74.734375 84.722656 L 75.476562 83.980469 L 88.871094 97.371094 " fill-opacity="1" fill-rule="nonzero"/></g></g></g><path stroke-linecap="butt" transform="matrix(0.744718, 0, 0, 0.744718, 82.644988, 31.072701)" fill="none" stroke-linejoin="miter" d="M 14.812034 15.071704 L 14.812034 24.093572 L 29.378154 24.093572 L 29.378154 32.491252 L 14.812034 32.491252 L 14.812034 42.28942 L 31.287433 42.28942 L 31.287433 51.001817 L 3.943831 51.001817 L 3.943831 6.359307 L 31.287433 6.359307 L 31.287433 15.071704 Z M 77.010469 6.359307 L 77.010469 51.001817 L 66.142266 51.001817 L 66.142266 32.617139 L 49.215773 32.617139 L 49.215773 51.001817 L 38.34757 51.001817 L 38.34757 6.359307 L 49.215773 6.359307 L 49.215773 23.841799 L 66.142266 23.841799 L 66.142266 6.359307 Z M 95.704619 15.071704 L 95.704619 24.093572 L 110.270739 24.093572 L 110.270739 32.491252 L 95.704619 32.491252 L 95.704619 42.28942 L 112.180018 42.28942 L 112.180018 51.001817 L 84.836415 51.001817 L 84.836415 6.359307 L 112.180018 6.359307 L 112.180018 15.071704 Z M 130.108357 6.359307 L 130.108357 51.001817 L 119.240154 51.001817 L 119.240154 6.359307 Z M 130.108357 6.359307 " stroke="#000000" stroke-width="11.448684" stroke-opacity="1" stroke-miterlimit="4"/><g clip-path="url(#017c8707d4)"><path stroke-linecap="butt" transform="matrix(0.744718, 0, 0, 0.744718, 82.644988, 31.072701)" fill="none" stroke-linejoin="miter" d="M 1.61493 81.775827 C 1.61493 78.382137 2.344023 75.36086 3.812699 72.706752 C 5.28662 70.047399 7.332276 67.975517 9.949667 66.49635 C 12.577548 65.006693 15.556863 64.261864 18.887611 64.261864 C 22.963187 64.261864 26.451293 65.34239 29.351928 67.498197 C 32.257809 69.648759 34.198559 72.580866 35.179425 76.289273 L 25.984464 76.289273 C 25.297333 74.857314 24.326958 73.766297 23.068092 73.016223 C 21.814472 72.271395 20.393004 71.893735 18.793196 71.893735 C 16.212522 71.893735 14.119658 72.790677 12.51985 74.58456 C 10.925288 76.373197 10.128006 78.770287 10.128006 81.775827 C 10.128006 84.776123 10.925288 87.178458 12.51985 88.977586 C 14.119658 90.771469 16.212522 91.663165 18.793196 91.663165 C 20.393004 91.663165 21.814472 91.290751 23.068092 90.540677 C 24.326958 89.785358 25.297333 88.689096 25.984464 87.257137 L 35.179425 87.257137 C 34.198559 90.976035 32.257809 93.902896 29.351928 96.037722 C 26.451293 98.172548 22.963187 99.237338 18.887611 99.237338 C 15.556863 99.237338 12.577548 98.497755 9.949667 97.018588 C 7.332276 95.534176 5.28662 93.472784 3.812699 90.829167 C 2.344023 88.18555 1.61493 85.164273 1.61493 81.775827 Z M 56.559154 99.347489 C 53.328066 99.347489 50.364488 98.597415 47.673663 97.102512 C 44.977593 95.597119 42.842768 93.49901 41.258696 90.802941 C 39.679869 88.112116 38.893078 85.085594 38.893078 81.72862 C 38.893078 78.366401 39.679869 75.345124 41.258696 72.670035 C 42.842768 69.994947 44.977593 67.907328 47.673663 66.412426 C 50.364488 64.912278 53.328066 64.167449 56.559154 64.167449 C 59.784996 64.167449 62.74333 64.912278 65.434154 66.412426 C 68.124979 67.907328 70.244068 69.994947 71.791424 72.670035 C 73.344024 75.345124 74.120324 78.366401 74.120324 81.72862 C 74.120324 85.085594 73.333534 88.112116 71.765197 90.802941 C 70.207352 93.49901 68.088262 95.597119 65.413173 97.102512 C 62.732839 98.597415 59.784996 99.347489 56.559154 99.347489 Z M 56.559154 91.715618 C 59.297186 91.715618 61.494955 90.802941 63.14197 88.977586 C 64.788986 87.146986 65.612493 84.728916 65.612493 81.72862 C 65.612493 78.691608 64.788986 76.273537 63.14197 74.463918 C 61.494955 72.6543 59.297186 71.752113 56.559154 71.752113 C 53.78965 71.752113 51.576145 72.649054 49.92913 74.437692 C 48.282115 76.231575 47.458607 78.660136 47.458607 81.72862 C 47.458607 84.760387 48.282115 87.183703 49.92913 89.003812 C 51.576145 90.808186 53.78965 91.715618 56.559154 91.715618 Z M 109.489193 99.001301 L 101.12823 99.001301 L 87.128599 77.810402 L 87.128599 99.001301 L 78.767635 99.001301 L 78.767635 64.65526 L 87.128599 64.65526 L 101.12823 85.930083 L 101.12823 64.65526 L 109.489193 64.65526 Z M 146.279531 99.001301 L 137.918567 99.001301 L 123.918937 77.810402 L 123.918937 99.001301 L 115.552728 99.001301 L 115.552728 64.65526 L 123.918937 64.65526 L 137.918567 85.930083 L 137.918567 64.65526 L 146.279531 64.65526 Z M 160.704029 71.358717 L 160.704029 78.298212 L 171.913175 78.298212 L 171.913175 84.760387 L 160.704029 84.760387 L 160.704029 92.297843 L 173.381851 92.297843 L 173.381851 99.001301 L 152.343065 99.001301 L 152.343065 64.65526 L 173.381851 64.65526 L 173.381851 71.358717 Z M 177.389239 81.775827 C 177.389239 78.382137 178.123577 75.36086 179.587008 72.706752 C 181.060929 70.047399 183.106586 67.975517 185.729222 66.49635 C 188.357103 65.006693 191.331172 64.261864 194.66192 64.261864 C 198.737496 64.261864 202.225602 65.34239 205.126237 67.498197 C 208.032118 69.648759 209.978114 72.580866 210.95898 76.289273 L 201.758773 76.289273 C 201.071642 74.857314 200.101267 73.766297 198.842401 73.016223 C 197.594027 72.271395 196.167313 71.893735 194.567505 71.893735 C 191.986831 71.893735 189.893967 72.790677 188.29416 74.58456 C 186.704842 76.373197 185.907561 78.770287 185.907561 81.775827 C 185.907561 84.776123 186.704842 87.178458 188.29416 88.977586 C 189.893967 90.771469 191.986831 91.663165 194.567505 91.663165 C 196.167313 91.663165 197.594027 91.290751 198.842401 90.540677 C 200.101267 89.785358 201.071642 88.689096 201.758773 87.257137 L 210.95898 87.257137 C 209.978114 90.976035 208.032118 93.902896 205.126237 96.037722 C 202.225602 98.172548 198.737496 99.237338 194.66192 99.237338 C 191.331172 99.237338 188.357103 98.497755 185.729222 97.018588 C 183.106586 95.534176 181.060929 93.472784 179.587008 90.829167 C 178.123577 88.18555 177.389239 85.164273 177.389239 81.775827 Z M 240.794087 64.65526 L 240.794087 71.358717 L 231.70403 71.358717 L 231.70403 99.001301 L 223.327331 99.001301 L 223.327331 71.358717 L 214.226784 71.358717 L 214.226784 64.65526 Z M 248.919013 99.394696 C 247.445092 99.394696 246.243924 98.964584 245.310266 98.104359 C 244.387098 97.233644 243.925514 96.163608 243.925514 94.889007 C 243.925514 93.582935 244.387098 92.491918 245.310266 91.615958 C 246.243924 90.734752 247.445092 90.288904 248.919013 90.288904 C 250.350972 90.288904 251.531158 90.734752 252.454326 91.615958 C 253.387985 92.491918 253.854814 93.582935 253.854814 94.889007 C 253.854814 96.163608 253.387985 97.233644 252.454326 98.104359 C 251.531158 98.964584 250.350972 99.394696 248.919013 99.394696 Z M 248.919013 99.394696 " stroke="#000000" stroke-width="11.448684" stroke-opacity="1" stroke-miterlimit="4"/></g><g fill="#ffffff" fill-opacity="1"><g transform="translate(82.644988, 69.053335)"><g><path d="M 11.03125 -26.765625 L 11.03125 -20.03125 L 21.875 -20.03125 L 21.875 -13.78125 L 11.03125 -13.78125 L 11.03125 -6.484375 L 23.296875 -6.484375 L 23.296875 0 L 2.9375 0 L 2.9375 -33.25 L 23.296875 -33.25 L 23.296875 -26.765625 Z M 11.03125 -26.765625 "/></g></g></g><g fill="#ffffff" fill-opacity="1"><g transform="translate(108.266487, 69.053335)"><g><path d="M 31.734375 -33.25 L 31.734375 0 L 23.625 0 L 23.625 -13.6875 L 11.03125 -13.6875 L 11.03125 0 L 2.9375 0 L 2.9375 -33.25 L 11.03125 -33.25 L 11.03125 -20.21875 L 23.625 -20.21875 L 23.625 -33.25 Z M 31.734375 -33.25 "/></g></g></g><g fill="#ffffff" fill-opacity="1"><g transform="translate(142.886297, 69.053335)"><g><path d="M 11.03125 -26.765625 L 11.03125 -20.03125 L 21.875 -20.03125 L 21.875 -13.78125 L 11.03125 -13.78125 L 11.03125 -6.484375 L 23.296875 -6.484375 L 23.296875 0 L 2.9375 0 L 2.9375 -33.25 L 23.296875 -33.25 L 23.296875 -26.765625 Z M 11.03125 -26.765625 "/></g></g></g><g fill="#ffffff" fill-opacity="1"><g transform="translate(168.507795, 69.053335)"><g><path d="M 11.03125 -33.25 L 11.03125 0 L 2.9375 0 L 2.9375 -33.25 Z M 11.03125 -33.25 "/></g></g></g><g fill="#ffffff" fill-opacity="1"><g transform="translate(82.644988, 104.799813)"><g><path d="M 1.203125 -12.828125 C 1.203125 -15.347656 1.75 -17.597656 2.84375 -19.578125 C 3.9375 -21.566406 5.457031 -23.113281 7.40625 -24.21875 C 9.363281 -25.320312 11.582031 -25.875 14.0625 -25.875 C 17.101562 -25.875 19.703125 -25.070312 21.859375 -23.46875 C 24.023438 -21.863281 25.472656 -19.675781 26.203125 -16.90625 L 19.34375 -16.90625 C 18.832031 -17.976562 18.109375 -18.789062 17.171875 -19.34375 C 16.242188 -19.90625 15.179688 -20.1875 13.984375 -20.1875 C 12.066406 -20.1875 10.515625 -19.515625 9.328125 -18.171875 C 8.140625 -16.835938 7.546875 -15.054688 7.546875 -12.828125 C 7.546875 -10.585938 8.140625 -8.800781 9.328125 -7.46875 C 10.515625 -6.132812 12.066406 -5.46875 13.984375 -5.46875 C 15.179688 -5.46875 16.242188 -5.742188 17.171875 -6.296875 C 18.109375 -6.859375 18.832031 -7.675781 19.34375 -8.75 L 26.203125 -8.75 C 25.472656 -5.976562 24.023438 -3.796875 21.859375 -2.203125 C 19.703125 -0.609375 17.101562 0.1875 14.0625 0.1875 C 11.582031 0.1875 9.363281 -0.363281 7.40625 -1.46875 C 5.457031 -2.582031 3.9375 -4.117188 2.84375 -6.078125 C 1.75 -8.046875 1.203125 -10.296875 1.203125 -12.828125 Z M 1.203125 -12.828125 "/></g></g></g><g fill="#ffffff" fill-opacity="1"><g transform="translate(110.406915, 104.799813)"><g><path d="M 14.359375 0.25 C 11.953125 0.25 9.742188 -0.304688 7.734375 -1.421875 C 5.734375 -2.535156 4.144531 -4.09375 2.96875 -6.09375 C 1.789062 -8.101562 1.203125 -10.359375 1.203125 -12.859375 C 1.203125 -15.359375 1.789062 -17.601562 2.96875 -19.59375 C 4.144531 -21.59375 5.734375 -23.148438 7.734375 -24.265625 C 9.742188 -25.378906 11.953125 -25.9375 14.359375 -25.9375 C 16.765625 -25.9375 18.96875 -25.378906 20.96875 -24.265625 C 22.96875 -23.148438 24.546875 -21.59375 25.703125 -19.59375 C 26.859375 -17.601562 27.4375 -15.359375 27.4375 -12.859375 C 27.4375 -10.359375 26.851562 -8.101562 25.6875 -6.09375 C 24.519531 -4.09375 22.941406 -2.535156 20.953125 -1.421875 C 18.960938 -0.304688 16.765625 0.25 14.359375 0.25 Z M 14.359375 -5.421875 C 16.398438 -5.421875 18.03125 -6.101562 19.25 -7.46875 C 20.476562 -8.832031 21.09375 -10.628906 21.09375 -12.859375 C 21.09375 -15.117188 20.476562 -16.921875 19.25 -18.265625 C 18.03125 -19.617188 16.398438 -20.296875 14.359375 -20.296875 C 12.296875 -20.296875 10.648438 -19.625 9.421875 -18.28125 C 8.191406 -16.945312 7.578125 -15.140625 7.578125 -12.859375 C 7.578125 -10.597656 8.191406 -8.789062 9.421875 -7.4375 C 10.648438 -6.09375 12.296875 -5.421875 14.359375 -5.421875 Z M 14.359375 -5.421875 "/></g></g></g><g fill="#ffffff" fill-opacity="1"><g transform="translate(139.04324, 104.799813)"><g><path d="M 25.140625 0 L 18.90625 0 L 8.484375 -15.78125 L 8.484375 0 L 2.265625 0 L 2.265625 -25.578125 L 8.484375 -25.578125 L 18.90625 -9.734375 L 18.90625 -25.578125 L 25.140625 -25.578125 Z M 25.140625 0 "/></g></g></g><g fill="#ffffff" fill-opacity="1"><g transform="translate(166.440841, 104.799813)"><g><path d="M 25.140625 0 L 18.90625 0 L 8.484375 -15.78125 L 8.484375 0 L 2.265625 0 L 2.265625 -25.578125 L 8.484375 -25.578125 L 18.90625 -9.734375 L 18.90625 -25.578125 L 25.140625 -25.578125 Z M 25.140625 0 "/></g></g></g><g fill="#ffffff" fill-opacity="1"><g transform="translate(193.838443, 104.799813)"><g><path d="M 8.484375 -20.59375 L 8.484375 -15.40625 L 16.828125 -15.40625 L 16.828125 -10.609375 L 8.484375 -10.609375 L 8.484375 -4.984375 L 17.921875 -4.984375 L 17.921875 0 L 2.265625 0 L 2.265625 -25.578125 L 17.921875 -25.578125 L 17.921875 -20.59375 Z M 8.484375 -20.59375 "/></g></g></g><g fill="#ffffff" fill-opacity="1"><g transform="translate(213.548682, 104.799813)"><g><path d="M 1.203125 -12.828125 C 1.203125 -15.347656 1.75 -17.597656 2.84375 -19.578125 C 3.9375 -21.566406 5.457031 -23.113281 7.40625 -24.21875 C 9.363281 -25.320312 11.582031 -25.875 14.0625 -25.875 C 17.101562 -25.875 19.703125 -25.070312 21.859375 -23.46875 C 24.023438 -21.863281 25.472656 -19.675781 26.203125 -16.90625 L 19.34375 -16.90625 C 18.832031 -17.976562 18.109375 -18.789062 17.171875 -19.34375 C 16.242188 -19.90625 15.179688 -20.1875 13.984375 -20.1875 C 12.066406 -20.1875 10.515625 -19.515625 9.328125 -18.171875 C 8.140625 -16.835938 7.546875 -15.054688 7.546875 -12.828125 C 7.546875 -10.585938 8.140625 -8.800781 9.328125 -7.46875 C 10.515625 -6.132812 12.066406 -5.46875 13.984375 -5.46875 C 15.179688 -5.46875 16.242188 -5.742188 17.171875 -6.296875 C 18.109375 -6.859375 18.832031 -7.675781 19.34375 -8.75 L 26.203125 -8.75 C 25.472656 -5.976562 24.023438 -3.796875 21.859375 -2.203125 C 19.703125 -0.609375 17.101562 0.1875 14.0625 0.1875 C 11.582031 0.1875 9.363281 -0.363281 7.40625 -1.46875 C 5.457031 -2.582031 3.9375 -4.117188 2.84375 -6.078125 C 1.75 -8.046875 1.203125 -10.296875 1.203125 -12.828125 Z M 1.203125 -12.828125 "/></g></g></g><g fill="#ffffff" fill-opacity="1"><g transform="translate(241.310609, 104.799813)"><g><path d="M 20.65625 -25.578125 L 20.65625 -20.59375 L 13.875 -20.59375 L 13.875 0 L 7.65625 0 L 7.65625 -20.59375 L 0.875 -20.59375 L 0.875 -25.578125 Z M 20.65625 -25.578125 "/></g></g></g><g fill="#ffffff" fill-opacity="1"><g transform="translate(262.842497, 104.799813)"><g><path d="M 5.171875 0.296875 C 4.078125 0.296875 3.179688 -0.0234375 2.484375 -0.671875 C 1.796875 -1.316406 1.453125 -2.113281 1.453125 -3.0625 C 1.453125 -4.03125 1.796875 -4.84375 2.484375 -5.5 C 3.179688 -6.15625 4.078125 -6.484375 5.171875 -6.484375 C 6.242188 -6.484375 7.125 -6.15625 7.8125 -5.5 C 8.507812 -4.84375 8.859375 -4.03125 8.859375 -3.0625 C 8.859375 -2.113281 8.507812 -1.316406 7.8125 -0.671875 C 7.125 -0.0234375 6.242188 0.296875 5.171875 0.296875 Z M 5.171875 0.296875 "/></g></g></g></svg>